<?xml version="1.0" encoding="UTF-8" standalone="no"?>
<!DOCTYPE svg PUBLIC "-//W3C//DTD SVG 1.1//EN"
 "http://www.w3.org/Graphics/SVG/1.1/DTD/svg11.dtd">
<!-- Generated by graphviz version 2.42.3 (20191010.1750)
 -->
<!-- Title: metaphlan_dag Pages: 1 -->
<svg width="1400pt" height="769pt"
 viewBox="0.00 0.00 1400.28 768.80" xmlns="http://www.w3.org/2000/svg" xmlns:xlink="http://www.w3.org/1999/xlink">
<g id="graph0" class="graph" transform="scale(1 1) rotate(0) translate(4 764.8)">
<title>metaphlan_dag</title>
<polygon fill="white" stroke="transparent" points="-4,4 -4,-764.8 1396.28,-764.8 1396.28,4 -4,4"/>
<!-- p0 -->
<g id="node1" class="node">
<title>p0</title>
<ellipse fill="black" stroke="black" cx="197.69" cy="-742.2" rx="3.6" ry="3.6"/>
<text text-anchor="middle" x="132.09" y="-749.6" font-family="Times,serif" font-size="14.00">Channel.fromFilePairs</text>
</g>
<!-- p1 -->
<g id="node2" class="node">
<title>p1</title>
<ellipse fill="none" stroke="black" cx="197.69" cy="-698.1" rx="3.5" ry="3.5"/>
<text text-anchor="middle" x="171.19" y="-705.4" font-family="Times,serif" font-size="14.00">ifEmpty</text>
</g>
<!-- p0&#45;&gt;p1 -->
<g id="edge1" class="edge">
<title>p0&#45;&gt;p1</title>
<path fill="none" stroke="black" d="M197.69,-738.44C197.69,-733.15 197.69,-721.28 197.69,-711.95"/>
<polygon fill="black" stroke="black" points="201.19,-711.93 197.69,-701.93 194.19,-711.93 201.19,-711.93"/>
</g>
<!-- p2 -->
<g id="node3" class="node">
<title>p2</title>
<ellipse fill="none" stroke="black" cx="89.69" cy="-625.6" rx="89.88" ry="18"/>
<text text-anchor="middle" x="89.69" y="-621.9" font-family="Times,serif" font-size="14.00">QC_rmHost:FASTQC</text>
</g>
<!-- p1&#45;&gt;p2 -->
<g id="edge2" class="edge">
<title>p1&#45;&gt;p2</title>
<path fill="none" stroke="black" d="M195.02,-695.36C185.23,-688.97 150.47,-666.28 123.53,-648.69"/>
<polygon fill="black" stroke="black" points="125.39,-645.72 115.1,-643.18 121.56,-651.58 125.39,-645.72"/>
<text text-anchor="middle" x="191.19" y="-665.4" font-family="Times,serif" font-size="14.00">reads_ch</text>
</g>
<!-- p3 -->
<g id="node5" class="node">
<title>p3</title>
<ellipse fill="none" stroke="black" cx="305.69" cy="-625.6" rx="107.78" ry="18"/>
<text text-anchor="middle" x="305.69" y="-621.9" font-family="Times,serif" font-size="14.00">QC_rmHost:TRIMREADS</text>
</g>
<!-- p1&#45;&gt;p3 -->
<g id="edge4" class="edge">
<title>p1&#45;&gt;p3</title>
<path fill="none" stroke="black" d="M200.36,-695.36C210.15,-688.97 244.91,-666.28 271.85,-648.69"/>
<polygon fill="black" stroke="black" points="273.82,-651.58 280.29,-643.18 270,-645.72 273.82,-651.58"/>
<text text-anchor="middle" x="276.19" y="-665.4" font-family="Times,serif" font-size="14.00">reads_ch</text>
</g>
<!-- p13 -->
<g id="node4" class="node">
<title>p13</title>
<ellipse fill="none" stroke="black" cx="89.69" cy="-552.6" rx="3.5" ry="3.5"/>
<text text-anchor="middle" x="67.69" y="-559.9" font-family="Times,serif" font-size="14.00">collect</text>
</g>
<!-- p2&#45;&gt;p13 -->
<g id="edge3" class="edge">
<title>p2&#45;&gt;p13</title>
<path fill="none" stroke="black" d="M89.69,-607.41C89.69,-594.77 89.69,-577.86 89.69,-566.39"/>
<polygon fill="black" stroke="black" points="93.19,-566.28 89.69,-556.28 86.19,-566.28 93.19,-566.28"/>
</g>
<!-- p14 -->
<g id="node16" class="node">
<title>p14</title>
<ellipse fill="none" stroke="black" cx="95.69" cy="-480.1" rx="3.5" ry="3.5"/>
<text text-anchor="middle" x="73.69" y="-487.4" font-family="Times,serif" font-size="14.00">collect</text>
</g>
<!-- p13&#45;&gt;p14 -->
<g id="edge16" class="edge">
<title>p13&#45;&gt;p14</title>
<path fill="none" stroke="black" d="M89.92,-548.92C90.68,-540.02 93.14,-511.04 94.6,-493.97"/>
<polygon fill="black" stroke="black" points="98.1,-494.04 95.46,-483.78 91.13,-493.45 98.1,-494.04"/>
<text text-anchor="middle" x="128.19" y="-505.4" font-family="Times,serif" font-size="14.00">fastqcoutput</text>
</g>
<!-- p4 -->
<g id="node6" class="node">
<title>p4</title>
<ellipse fill="none" stroke="black" cx="235.69" cy="-552.6" rx="124.58" ry="18"/>
<text text-anchor="middle" x="235.69" y="-548.9" font-family="Times,serif" font-size="14.00">QC_rmHost:CLEANPEREADS</text>
</g>
<!-- p3&#45;&gt;p4 -->
<g id="edge5" class="edge">
<title>p3&#45;&gt;p4</title>
<path fill="none" stroke="black" d="M289.1,-607.77C280.34,-598.89 269.42,-587.81 259.75,-578"/>
<polygon fill="black" stroke="black" points="262.16,-575.46 252.65,-570.8 257.18,-580.38 262.16,-575.46"/>
</g>
<!-- p5 -->
<g id="node7" class="node">
<title>p5</title>
<ellipse fill="none" stroke="black" cx="503.69" cy="-552.6" rx="124.58" ry="18"/>
<text text-anchor="middle" x="503.69" y="-548.9" font-family="Times,serif" font-size="14.00">QC_rmHost:CLEANSEREADS</text>
</g>
<!-- p3&#45;&gt;p5 -->
<g id="edge6" class="edge">
<title>p3&#45;&gt;p5</title>
<path fill="none" stroke="black" d="M349.14,-609.02C378.75,-598.4 418.16,-584.27 449.77,-572.93"/>
<polygon fill="black" stroke="black" points="451.08,-576.18 459.31,-569.51 448.72,-569.59 451.08,-576.18"/>
</g>
<!-- p6 -->
<g id="node8" class="node">
<title>p6</title>
<ellipse fill="none" stroke="black" cx="503.69" cy="-480.1" rx="3.5" ry="3.5"/>
<text text-anchor="middle" x="489.19" y="-487.4" font-family="Times,serif" font-size="14.00">join</text>
</g>
<!-- p4&#45;&gt;p6 -->
<g id="edge7" class="edge">
<title>p4&#45;&gt;p6</title>
<path fill="none" stroke="black" d="M292.86,-536.56C356.38,-519.85 454.71,-493.98 490.28,-484.63"/>
<polygon fill="black" stroke="black" points="491.58,-487.91 500.36,-481.98 489.8,-481.14 491.58,-487.91"/>
</g>
<!-- p5&#45;&gt;p6 -->
<g id="edge8" class="edge">
<title>p5&#45;&gt;p6</title>
<path fill="none" stroke="black" d="M503.69,-534.53C503.69,-521.98 503.69,-505.19 503.69,-493.8"/>
<polygon fill="black" stroke="black" points="507.19,-493.76 503.69,-483.76 500.19,-493.76 507.19,-493.76"/>
</g>
<!-- p11 -->
<g id="node9" class="node">
<title>p11</title>
<ellipse fill="none" stroke="black" cx="647.69" cy="-407.6" rx="114.28" ry="18"/>
<text text-anchor="middle" x="647.69" y="-403.9" font-family="Times,serif" font-size="14.00">QC_rmHost:FILTERREADS</text>
</g>
<!-- p6&#45;&gt;p11 -->
<g id="edge9" class="edge">
<title>p6&#45;&gt;p11</title>
<path fill="none" stroke="black" d="M506.44,-477.75C518.56,-471.82 568.24,-447.5 605.28,-429.36"/>
<polygon fill="black" stroke="black" points="606.95,-432.44 614.39,-424.9 603.87,-426.16 606.95,-432.44"/>
</g>
<!-- p15 -->
<g id="node14" class="node">
<title>p15</title>
<ellipse fill="none" stroke="black" cx="415.69" cy="-320.6" rx="79.09" ry="18"/>
<text text-anchor="middle" x="415.69" y="-316.9" font-family="Times,serif" font-size="14.00">kraken:KRAKEN2</text>
</g>
<!-- p11&#45;&gt;p15 -->
<g id="edge14" class="edge">
<title>p11&#45;&gt;p15</title>
<path fill="none" stroke="black" d="M591.8,-391.79C571.72,-386.04 549.01,-379.05 528.69,-371.6 504.59,-362.77 478.33,-351.26 457.19,-341.52"/>
<polygon fill="black" stroke="black" points="458.41,-338.23 447.87,-337.18 455.46,-344.57 458.41,-338.23"/>
<text text-anchor="middle" x="540.19" y="-360.4" font-family="Times,serif" font-size="14.00">data</text>
</g>
<!-- p12 -->
<g id="node15" class="node">
<title>p12</title>
<ellipse fill="black" stroke="black" cx="523.69" cy="-320.6" rx="1.8" ry="1.8"/>
</g>
<!-- p11&#45;&gt;p12 -->
<g id="edge15" class="edge">
<title>p11&#45;&gt;p12</title>
<path fill="none" stroke="black" d="M609.65,-390.57C585.55,-378.93 555.01,-361.26 533.69,-338.6 531.79,-336.57 530.08,-334.12 528.64,-331.72"/>
<polygon fill="black" stroke="black" points="531.7,-330 524.1,-322.62 525.44,-333.13 531.7,-330"/>
<text text-anchor="middle" x="604.19" y="-360.4" font-family="Times,serif" font-size="14.00">bowtie_log</text>
</g>
<!-- p19 -->
<g id="node21" class="node">
<title>p19</title>
<ellipse fill="none" stroke="black" cx="647.69" cy="-320.6" rx="104.78" ry="18"/>
<text text-anchor="middle" x="647.69" y="-316.9" font-family="Times,serif" font-size="14.00">metaphlan:METAPHLAN</text>
</g>
<!-- p11&#45;&gt;p19 -->
<g id="edge21" class="edge">
<title>p11&#45;&gt;p19</title>
<path fill="none" stroke="black" d="M647.69,-389.4C647.69,-377.76 647.69,-362.15 647.69,-348.84"/>
<polygon fill="black" stroke="black" points="651.19,-348.78 647.69,-338.78 644.19,-348.78 651.19,-348.78"/>
<text text-anchor="middle" x="659.19" y="-360.4" font-family="Times,serif" font-size="14.00">data</text>
</g>
<!-- p25 -->
<g id="node27" class="node">
<title>p25</title>
<ellipse fill="none" stroke="black" cx="955.69" cy="-320.6" rx="81.79" ry="18"/>
<text text-anchor="middle" x="955.69" y="-316.9" font-family="Times,serif" font-size="14.00">humann:HUMANN</text>
</g>
<!-- p11&#45;&gt;p25 -->
<g id="edge27" class="edge">
<title>p11&#45;&gt;p25</title>
<path fill="none" stroke="black" d="M701.69,-391.7C756.38,-376.61 840.7,-353.33 897.01,-337.8"/>
<polygon fill="black" stroke="black" points="898.13,-341.12 906.84,-335.08 896.26,-334.37 898.13,-341.12"/>
<text text-anchor="middle" x="831.19" y="-360.4" font-family="Times,serif" font-size="14.00">data</text>
</g>
<!-- p7 -->
<g id="node10" class="node">
<title>p7</title>
<ellipse fill="black" stroke="black" cx="649.69" cy="-552.6" rx="3.6" ry="3.6"/>
<text text-anchor="middle" x="696.09" y="-560" font-family="Times,serif" font-size="14.00">Channel.fromPath</text>
</g>
<!-- p8 -->
<g id="node11" class="node">
<title>p8</title>
<ellipse fill="none" stroke="black" cx="648.69" cy="-480.1" rx="3.5" ry="3.5"/>
<text text-anchor="middle" x="626.69" y="-487.4" font-family="Times,serif" font-size="14.00">collect</text>
</g>
<!-- p7&#45;&gt;p8 -->
<g id="edge10" class="edge">
<title>p7&#45;&gt;p8</title>
<path fill="none" stroke="black" d="M649.65,-548.92C649.53,-540.02 649.12,-511.04 648.87,-493.97"/>
<polygon fill="black" stroke="black" points="652.37,-493.73 648.73,-483.78 645.37,-493.83 652.37,-493.73"/>
</g>
<!-- p8&#45;&gt;p11 -->
<g id="edge11" class="edge">
<title>p8&#45;&gt;p11</title>
<path fill="none" stroke="black" d="M648.65,-476.42C648.56,-469.76 648.31,-451.84 648.08,-436.09"/>
<polygon fill="black" stroke="black" points="651.58,-435.65 647.93,-425.7 644.58,-435.75 651.58,-435.65"/>
</g>
<!-- p9 -->
<g id="node12" class="node">
<title>p9</title>
<ellipse fill="black" stroke="black" cx="674.69" cy="-552.6" rx="3.6" ry="3.6"/>
<text text-anchor="middle" x="721.09" y="-537.8" font-family="Times,serif" font-size="14.00">Channel.fromPath</text>
</g>
<!-- p10 -->
<g id="node13" class="node">
<title>p10</title>
<ellipse fill="none" stroke="black" cx="673.69" cy="-480.1" rx="3.5" ry="3.5"/>
<text text-anchor="middle" x="657.69" y="-487.4" font-family="Times,serif" font-size="14.00">map</text>
</g>
<!-- p9&#45;&gt;p10 -->
<g id="edge12" class="edge">
<title>p9&#45;&gt;p10</title>
<path fill="none" stroke="black" d="M674.65,-548.92C674.53,-540.02 674.12,-511.04 673.87,-493.97"/>
<polygon fill="black" stroke="black" points="677.37,-493.73 673.73,-483.78 670.37,-493.83 677.37,-493.73"/>
</g>
<!-- p10&#45;&gt;p11 -->
<g id="edge13" class="edge">
<title>p10&#45;&gt;p11</title>
<path fill="none" stroke="black" d="M672.7,-476.42C670.2,-469.63 663.38,-451.15 657.5,-435.19"/>
<polygon fill="black" stroke="black" points="660.74,-433.87 654,-425.7 654.18,-436.3 660.74,-433.87"/>
</g>
<!-- p16 -->
<g id="node18" class="node">
<title>p16</title>
<ellipse fill="none" stroke="black" cx="341.69" cy="-248.1" rx="3.5" ry="3.5"/>
<text text-anchor="middle" x="319.69" y="-255.4" font-family="Times,serif" font-size="14.00">collect</text>
</g>
<!-- p15&#45;&gt;p16 -->
<g id="edge18" class="edge">
<title>p15&#45;&gt;p16</title>
<path fill="none" stroke="black" d="M398.16,-302.89C383.59,-289.01 363.39,-269.77 351.52,-258.46"/>
<polygon fill="black" stroke="black" points="353.7,-255.7 344.04,-251.34 348.87,-260.77 353.7,-255.7"/>
</g>
<!-- p35 -->
<g id="node17" class="node">
<title>p35</title>
<ellipse fill="none" stroke="black" cx="122.69" cy="-364.1" rx="3.5" ry="3.5"/>
<text text-anchor="middle" x="100.69" y="-371.4" font-family="Times,serif" font-size="14.00">collect</text>
</g>
<!-- p14&#45;&gt;p35 -->
<g id="edge17" class="edge">
<title>p14&#45;&gt;p35</title>
<path fill="none" stroke="black" d="M96.36,-476.28C99.57,-462.73 113.52,-403.82 119.71,-377.68"/>
<polygon fill="black" stroke="black" points="123.15,-378.36 122.05,-367.82 116.34,-376.74 123.15,-378.36"/>
<text text-anchor="middle" x="139.69" y="-447.4" font-family="Times,serif" font-size="14.00">Fastqcoutput</text>
</g>
<!-- p37 -->
<g id="node37" class="node">
<title>p37</title>
<ellipse fill="none" stroke="black" cx="170.69" cy="-58.6" rx="55.49" ry="18"/>
<text text-anchor="middle" x="170.69" y="-54.9" font-family="Times,serif" font-size="14.00">MULTIQC2</text>
</g>
<!-- p35&#45;&gt;p37 -->
<g id="edge37" class="edge">
<title>p35&#45;&gt;p37</title>
<path fill="none" stroke="black" d="M124.43,-360.88C131.62,-351.47 158.69,-313.68 158.69,-278.1 158.69,-278.1 158.69,-278.1 158.69,-116.1 158.69,-106.34 160.43,-95.83 162.58,-86.55"/>
<polygon fill="black" stroke="black" points="166.01,-87.27 165.11,-76.71 159.23,-85.52 166.01,-87.27"/>
</g>
<!-- p17 -->
<g id="node19" class="node">
<title>p17</title>
<ellipse fill="none" stroke="black" cx="291.69" cy="-189.6" rx="104.78" ry="18"/>
<text text-anchor="middle" x="291.69" y="-185.9" font-family="Times,serif" font-size="14.00">kraken:KRAKEN2YAML</text>
</g>
<!-- p16&#45;&gt;p17 -->
<g id="edge19" class="edge">
<title>p16&#45;&gt;p17</title>
<path fill="none" stroke="black" d="M339.54,-244.67C334.94,-239.47 323.71,-226.78 313.28,-215"/>
<polygon fill="black" stroke="black" points="315.87,-212.64 306.63,-207.48 310.63,-217.28 315.87,-212.64"/>
</g>
<!-- p36 -->
<g id="node20" class="node">
<title>p36</title>
<ellipse fill="none" stroke="black" cx="216.69" cy="-117.1" rx="3.5" ry="3.5"/>
<text text-anchor="middle" x="194.69" y="-124.4" font-family="Times,serif" font-size="14.00">collect</text>
</g>
<!-- p17&#45;&gt;p36 -->
<g id="edge20" class="edge">
<title>p17&#45;&gt;p36</title>
<path fill="none" stroke="black" d="M273.54,-171.53C258.76,-157.64 238.46,-138.56 226.55,-127.36"/>
<polygon fill="black" stroke="black" points="228.73,-124.62 219.05,-120.32 223.94,-129.72 228.73,-124.62"/>
<text text-anchor="middle" x="288.19" y="-142.4" font-family="Times,serif" font-size="14.00">report_yaml</text>
</g>
<!-- p36&#45;&gt;p37 -->
<g id="edge38" class="edge">
<title>p36&#45;&gt;p37</title>
<path fill="none" stroke="black" d="M214.72,-113.67C210.5,-108.49 200.21,-95.86 190.64,-84.1"/>
<polygon fill="black" stroke="black" points="193.24,-81.75 184.21,-76.21 187.81,-86.17 193.24,-81.75"/>
</g>
<!-- p22 -->
<g id="node22" class="node">
<title>p22</title>
<ellipse fill="none" stroke="black" cx="550.69" cy="-248.1" rx="3.5" ry="3.5"/>
<text text-anchor="middle" x="528.69" y="-255.4" font-family="Times,serif" font-size="14.00">collect</text>
</g>
<!-- p19&#45;&gt;p22 -->
<g id="edge22" class="edge">
<title>p19&#45;&gt;p22</title>
<path fill="none" stroke="black" d="M591.77,-305.21C580.63,-300.2 569.87,-293.51 561.69,-284.6 555.99,-278.39 553.24,-269.27 551.92,-261.82"/>
<polygon fill="black" stroke="black" points="555.38,-261.24 550.77,-251.7 548.42,-262.03 555.38,-261.24"/>
<text text-anchor="middle" x="602.69" y="-273.4" font-family="Times,serif" font-size="14.00">metaphlan_out</text>
</g>
<!-- p21 -->
<g id="node23" class="node">
<title>p21</title>
<ellipse fill="black" stroke="black" cx="647.69" cy="-248.1" rx="1.8" ry="1.8"/>
</g>
<!-- p19&#45;&gt;p21 -->
<g id="edge23" class="edge">
<title>p19&#45;&gt;p21</title>
<path fill="none" stroke="black" d="M647.69,-302.53C647.69,-289.39 647.69,-271.59 647.69,-260.23"/>
<polygon fill="black" stroke="black" points="651.19,-259.92 647.69,-249.92 644.19,-259.92 651.19,-259.92"/>
</g>
<!-- p20 -->
<g id="node24" class="node">
<title>p20</title>
<ellipse fill="black" stroke="black" cx="672.69" cy="-248.1" rx="1.8" ry="1.8"/>
</g>
<!-- p19&#45;&gt;p20 -->
<g id="edge24" class="edge">
<title>p19&#45;&gt;p20</title>
<path fill="none" stroke="black" d="M653.74,-302.53C658.51,-289.09 665,-270.79 669.01,-259.47"/>
<polygon fill="black" stroke="black" points="672.36,-260.52 672.4,-249.92 665.76,-258.18 672.36,-260.52"/>
</g>
<!-- p23 -->
<g id="node25" class="node">
<title>p23</title>
<ellipse fill="none" stroke="black" cx="549.69" cy="-189.6" rx="135.68" ry="18"/>
<text text-anchor="middle" x="549.69" y="-185.9" font-family="Times,serif" font-size="14.00">metaphlan:ABUNDANCEMERGE</text>
</g>
<!-- p22&#45;&gt;p23 -->
<g id="edge25" class="edge">
<title>p22&#45;&gt;p23</title>
<path fill="none" stroke="black" d="M550.64,-244.37C550.56,-239.43 550.36,-228.5 550.17,-217.77"/>
<polygon fill="black" stroke="black" points="553.67,-217.69 550,-207.75 546.67,-217.81 553.67,-217.69"/>
</g>
<!-- p24 -->
<g id="node26" class="node">
<title>p24</title>
<ellipse fill="black" stroke="black" cx="549.69" cy="-117.1" rx="1.8" ry="1.8"/>
</g>
<!-- p23&#45;&gt;p24 -->
<g id="edge26" class="edge">
<title>p23&#45;&gt;p24</title>
<path fill="none" stroke="black" d="M549.69,-171.53C549.69,-158.39 549.69,-140.59 549.69,-129.23"/>
<polygon fill="black" stroke="black" points="553.19,-128.92 549.69,-118.92 546.19,-128.92 553.19,-128.92"/>
<text text-anchor="middle" x="581.69" y="-142.4" font-family="Times,serif" font-size="14.00">abundances</text>
</g>
<!-- p26 -->
<g id="node28" class="node">
<title>p26</title>
<ellipse fill="none" stroke="black" cx="836.69" cy="-248.1" rx="3.5" ry="3.5"/>
<text text-anchor="middle" x="814.69" y="-255.4" font-family="Times,serif" font-size="14.00">collect</text>
</g>
<!-- p25&#45;&gt;p26 -->
<g id="edge28" class="edge">
<title>p25&#45;&gt;p26</title>
<path fill="none" stroke="black" d="M928.69,-303.6C903.25,-288.53 866.37,-266.68 847.99,-255.79"/>
<polygon fill="black" stroke="black" points="849.59,-252.67 839.2,-250.59 846.02,-258.7 849.59,-252.67"/>
<text text-anchor="middle" x="930.69" y="-273.4" font-family="Times,serif" font-size="14.00">genefamilies</text>
</g>
<!-- p29 -->
<g id="node29" class="node">
<title>p29</title>
<ellipse fill="none" stroke="black" cx="1042.69" cy="-248.1" rx="3.5" ry="3.5"/>
<text text-anchor="middle" x="1020.69" y="-255.4" font-family="Times,serif" font-size="14.00">collect</text>
</g>
<!-- p25&#45;&gt;p29 -->
<g id="edge29" class="edge">
<title>p25&#45;&gt;p29</title>
<path fill="none" stroke="black" d="M976.31,-302.89C993.93,-288.62 1018.55,-268.67 1032.32,-257.51"/>
<polygon fill="black" stroke="black" points="1034.87,-259.94 1040.43,-250.93 1030.46,-254.51 1034.87,-259.94"/>
<text text-anchor="middle" x="1057.69" y="-273.4" font-family="Times,serif" font-size="14.00">pathabundance</text>
</g>
<!-- p32 -->
<g id="node30" class="node">
<title>p32</title>
<ellipse fill="none" stroke="black" cx="1265.69" cy="-248.1" rx="3.5" ry="3.5"/>
<text text-anchor="middle" x="1243.69" y="-255.4" font-family="Times,serif" font-size="14.00">collect</text>
</g>
<!-- p25&#45;&gt;p32 -->
<g id="edge30" class="edge">
<title>p25&#45;&gt;p32</title>
<path fill="none" stroke="black" d="M1010.4,-307.16C1084.28,-290.36 1211.42,-261.44 1252.49,-252.1"/>
<polygon fill="black" stroke="black" points="1253.49,-255.46 1262.47,-249.83 1251.94,-248.64 1253.49,-255.46"/>
<text text-anchor="middle" x="1208.69" y="-273.4" font-family="Times,serif" font-size="14.00">pathcoverage</text>
</g>
<!-- p27 -->
<g id="node31" class="node">
<title>p27</title>
<ellipse fill="none" stroke="black" cx="809.69" cy="-189.6" rx="105.88" ry="18"/>
<text text-anchor="middle" x="809.69" y="-185.9" font-family="Times,serif" font-size="14.00">humann:JOINgenefamilies</text>
</g>
<!-- p26&#45;&gt;p27 -->
<g id="edge31" class="edge">
<title>p26&#45;&gt;p27</title>
<path fill="none" stroke="black" d="M835.53,-244.67C833.18,-239.75 827.63,-228.13 822.27,-216.91"/>
<polygon fill="black" stroke="black" points="825.35,-215.26 817.88,-207.74 819.04,-218.28 825.35,-215.26"/>
</g>
<!-- p30 -->
<g id="node33" class="node">
<title>p30</title>
<ellipse fill="none" stroke="black" cx="1047.69" cy="-189.6" rx="113.98" ry="18"/>
<text text-anchor="middle" x="1047.69" y="-185.9" font-family="Times,serif" font-size="14.00">humann:JOINpathabundance</text>
</g>
<!-- p29&#45;&gt;p30 -->
<g id="edge33" class="edge">
<title>p29&#45;&gt;p30</title>
<path fill="none" stroke="black" d="M1042.93,-244.37C1043.37,-239.43 1044.34,-228.5 1045.29,-217.77"/>
<polygon fill="black" stroke="black" points="1048.78,-218.02 1046.17,-207.75 1041.81,-217.41 1048.78,-218.02"/>
</g>
<!-- p33 -->
<g id="node35" class="node">
<title>p33</title>
<ellipse fill="none" stroke="black" cx="1285.69" cy="-189.6" rx="106.68" ry="18"/>
<text text-anchor="middle" x="1285.69" y="-185.9" font-family="Times,serif" font-size="14.00">humann:JOINpathcoverage</text>
</g>
<!-- p32&#45;&gt;p33 -->
<g id="edge35" class="edge">
<title>p32&#45;&gt;p33</title>
<path fill="none" stroke="black" d="M1266.55,-244.67C1268.27,-239.8 1272.33,-228.36 1276.26,-217.25"/>
<polygon fill="black" stroke="black" points="1279.59,-218.34 1279.62,-207.74 1272.99,-216 1279.59,-218.34"/>
</g>
<!-- p28 -->
<g id="node32" class="node">
<title>p28</title>
<ellipse fill="black" stroke="black" cx="809.69" cy="-117.1" rx="1.8" ry="1.8"/>
</g>
<!-- p27&#45;&gt;p28 -->
<g id="edge32" class="edge">
<title>p27&#45;&gt;p28</title>
<path fill="none" stroke="black" d="M809.69,-171.53C809.69,-158.39 809.69,-140.59 809.69,-129.23"/>
<polygon fill="black" stroke="black" points="813.19,-128.92 809.69,-118.92 806.19,-128.92 813.19,-128.92"/>
<text text-anchor="middle" x="843.19" y="-142.4" font-family="Times,serif" font-size="14.00">mergedtable</text>
</g>
<!-- p31 -->
<g id="node34" class="node">
<title>p31</title>
<ellipse fill="black" stroke="black" cx="1047.69" cy="-117.1" rx="1.8" ry="1.8"/>
</g>
<!-- p30&#45;&gt;p31 -->
<g id="edge34" class="edge">
<title>p30&#45;&gt;p31</title>
<path fill="none" stroke="black" d="M1047.69,-171.53C1047.69,-158.39 1047.69,-140.59 1047.69,-129.23"/>
<polygon fill="black" stroke="black" points="1051.19,-128.92 1047.69,-118.92 1044.19,-128.92 1051.19,-128.92"/>
<text text-anchor="middle" x="1081.19" y="-142.4" font-family="Times,serif" font-size="14.00">mergedtable</text>
</g>
<!-- p34 -->
<g id="node36" class="node">
<title>p34</title>
<ellipse fill="black" stroke="black" cx="1285.69" cy="-117.1" rx="1.8" ry="1.8"/>
</g>
<!-- p33&#45;&gt;p34 -->
<g id="edge36" class="edge">
<title>p33&#45;&gt;p34</title>
<path fill="none" stroke="black" d="M1285.69,-171.53C1285.69,-158.39 1285.69,-140.59 1285.69,-129.23"/>
<polygon fill="black" stroke="black" points="1289.19,-128.92 1285.69,-118.92 1282.19,-128.92 1289.19,-128.92"/>
<text text-anchor="middle" x="1319.19" y="-142.4" font-family="Times,serif" font-size="14.00">mergedtable</text>
</g>
<!-- p38 -->
<g id="node38" class="node">
<title>p38</title>
<ellipse fill="black" stroke="black" cx="170.69" cy="-1.8" rx="1.8" ry="1.8"/>
</g>
<!-- p37&#45;&gt;p38 -->
<g id="edge39" class="edge">
<title>p37&#45;&gt;p38</title>
<path fill="none" stroke="black" d="M170.69,-40.56C170.69,-31.87 170.69,-21.56 170.69,-13.9"/>
<polygon fill="black" stroke="black" points="174.19,-13.76 170.69,-3.76 167.19,-13.76 174.19,-13.76"/>
</g>
</g>
</svg>
