<?xml version="1.0" encoding="UTF-8" standalone="no"?>
<!DOCTYPE svg PUBLIC "-//W3C//DTD SVG 1.1//EN"
 "http://www.w3.org/Graphics/SVG/1.1/DTD/svg11.dtd">
<!-- Generated by graphviz version 2.43.20190912.0211 (20190912.0211)
 -->
<!-- Title: metawo_dag Pages: 1 -->
<svg width="2727pt" height="871pt"
 viewBox="0.00 0.00 2726.90 871.00" xmlns="http://www.w3.org/2000/svg" xmlns:xlink="http://www.w3.org/1999/xlink">
<g id="graph0" class="graph" transform="scale(1 1) rotate(0) translate(4 867)">
<title>metawo_dag</title>
<polygon fill="white" stroke="transparent" points="-4,4 -4,-867 2722.9,-867 2722.9,4 -4,4"/>
<!-- p0 -->
<g id="node1" class="node">
<title>p0</title>
<ellipse fill="black" stroke="black" cx="371.85" cy="-842.6" rx="3.6" ry="3.6"/>
<text text-anchor="middle" x="304.68" y="-850.4" font-family="Times-Roman" font-size="14.00">Channel.fromFilePairs</text>
</g>
<!-- p1 -->
<g id="node2" class="node">
<title>p1</title>
<ellipse fill="none" stroke="black" cx="371.85" cy="-798.5" rx="3.5" ry="3.5"/>
<text text-anchor="middle" x="345.4" y="-806.2" font-family="Times-Roman" font-size="14.00">ifEmpty</text>
</g>
<!-- p0&#45;&gt;p1 -->
<g id="edge1" class="edge">
<title>p0&#45;&gt;p1</title>
<path fill="none" stroke="black" d="M371.85,-838.84C371.85,-833.55 371.85,-821.68 371.85,-812.35"/>
<polygon fill="black" stroke="black" points="375.35,-812.33 371.85,-802.33 368.35,-812.33 375.35,-812.33"/>
</g>
<!-- p2 -->
<g id="node3" class="node">
<title>p2</title>
<ellipse fill="none" stroke="black" cx="248.85" cy="-724.2" rx="112.34" ry="18"/>
<text text-anchor="middle" x="248.85" y="-720" font-family="Times-Roman" font-size="14.00">QC_rmHost:FASTQCraw</text>
</g>
<!-- p1&#45;&gt;p2 -->
<g id="edge2" class="edge">
<title>p1&#45;&gt;p2</title>
<path fill="none" stroke="black" d="M369.28,-795.99C358.66,-789.75 317.33,-765.45 286.02,-747.05"/>
<polygon fill="black" stroke="black" points="287.47,-743.85 277.08,-741.8 283.93,-749.88 287.47,-743.85"/>
<text text-anchor="middle" x="360.72" y="-764.4" font-family="Times-Roman" font-size="14.00">reads_ch</text>
</g>
<!-- p3 -->
<g id="node5" class="node">
<title>p3</title>
<ellipse fill="none" stroke="black" cx="497.85" cy="-724.2" rx="116.93" ry="18"/>
<text text-anchor="middle" x="497.85" y="-720" font-family="Times-Roman" font-size="14.00">QC_rmHost:TRIMREADS</text>
</g>
<!-- p1&#45;&gt;p3 -->
<g id="edge4" class="edge">
<title>p1&#45;&gt;p3</title>
<path fill="none" stroke="black" d="M374.48,-795.99C385.4,-789.72 428.06,-765.24 460.18,-746.81"/>
<polygon fill="black" stroke="black" points="461.99,-749.81 468.92,-741.8 458.51,-743.74 461.99,-749.81"/>
<text text-anchor="middle" x="459.72" y="-764.4" font-family="Times-Roman" font-size="14.00">reads_ch</text>
</g>
<!-- p14 -->
<g id="node4" class="node">
<title>p14</title>
<ellipse fill="none" stroke="black" cx="239.85" cy="-651.2" rx="3.5" ry="3.5"/>
<text text-anchor="middle" x="217.69" y="-658.9" font-family="Times-Roman" font-size="14.00">collect</text>
</g>
<!-- p2&#45;&gt;p14 -->
<g id="edge3" class="edge">
<title>p2&#45;&gt;p14</title>
<path fill="none" stroke="black" d="M246.67,-706.01C245.06,-693.37 242.92,-676.46 241.47,-664.99"/>
<polygon fill="black" stroke="black" points="244.92,-664.36 240.19,-654.88 237.97,-665.24 244.92,-664.36"/>
</g>
<!-- p16 -->
<g id="node17" class="node">
<title>p16</title>
<ellipse fill="none" stroke="black" cx="200.85" cy="-576.9" rx="3.5" ry="3.5"/>
<text text-anchor="middle" x="178.69" y="-584.6" font-family="Times-Roman" font-size="14.00">collect</text>
</g>
<!-- p14&#45;&gt;p16 -->
<g id="edge17" class="edge">
<title>p14&#45;&gt;p16</title>
<path fill="none" stroke="black" d="M238.55,-647.79C233.69,-638.79 216.38,-606.7 207,-589.31"/>
<polygon fill="black" stroke="black" points="210.02,-587.53 202.19,-580.39 203.86,-590.85 210.02,-587.53"/>
<text text-anchor="middle" x="255.45" y="-602.6" font-family="Times-Roman" font-size="14.00">fastqcoutput</text>
</g>
<!-- p4 -->
<g id="node6" class="node">
<title>p4</title>
<ellipse fill="none" stroke="black" cx="497.85" cy="-651.2" rx="136.05" ry="18"/>
<text text-anchor="middle" x="497.85" y="-647" font-family="Times-Roman" font-size="14.00">QC_rmHost:CLEANPEREADS</text>
</g>
<!-- p3&#45;&gt;p4 -->
<g id="edge5" class="edge">
<title>p3&#45;&gt;p4</title>
<path fill="none" stroke="black" d="M497.85,-706.01C497.85,-697.99 497.85,-688.25 497.85,-679.27"/>
<polygon fill="black" stroke="black" points="501.35,-679.23 497.85,-669.23 494.35,-679.23 501.35,-679.23"/>
</g>
<!-- p5 -->
<g id="node7" class="node">
<title>p5</title>
<ellipse fill="none" stroke="black" cx="787.85" cy="-651.2" rx="136.05" ry="18"/>
<text text-anchor="middle" x="787.85" y="-647" font-family="Times-Roman" font-size="14.00">QC_rmHost:CLEANSEREADS</text>
</g>
<!-- p3&#45;&gt;p5 -->
<g id="edge6" class="edge">
<title>p3&#45;&gt;p5</title>
<path fill="none" stroke="black" d="M557.23,-708.66C603.35,-697.37 667.48,-681.67 716.4,-669.69"/>
<polygon fill="black" stroke="black" points="717.41,-673.05 726.29,-667.27 715.74,-666.25 717.41,-673.05"/>
</g>
<!-- p6 -->
<g id="node8" class="node">
<title>p6</title>
<ellipse fill="none" stroke="black" cx="787.85" cy="-576.9" rx="3.5" ry="3.5"/>
<text text-anchor="middle" x="773.46" y="-584.6" font-family="Times-Roman" font-size="14.00">join</text>
</g>
<!-- p4&#45;&gt;p6 -->
<g id="edge7" class="edge">
<title>p4&#45;&gt;p6</title>
<path fill="none" stroke="black" d="M558.64,-635.04C628.17,-617.71 737.24,-590.52 774.7,-581.18"/>
<polygon fill="black" stroke="black" points="775.92,-584.48 784.78,-578.66 774.23,-577.69 775.92,-584.48"/>
</g>
<!-- p5&#45;&gt;p6 -->
<g id="edge8" class="edge">
<title>p5&#45;&gt;p6</title>
<path fill="none" stroke="black" d="M787.85,-633.07C787.85,-620.06 787.85,-602.47 787.85,-590.68"/>
<polygon fill="black" stroke="black" points="791.35,-590.66 787.85,-580.66 784.35,-590.66 791.35,-590.66"/>
</g>
<!-- p11 -->
<g id="node9" class="node">
<title>p11</title>
<ellipse fill="none" stroke="black" cx="959.85" cy="-502.6" rx="125.1" ry="18"/>
<text text-anchor="middle" x="959.85" y="-498.4" font-family="Times-Roman" font-size="14.00">QC_rmHost:FILTERREADS</text>
</g>
<!-- p6&#45;&gt;p11 -->
<g id="edge9" class="edge">
<title>p6&#45;&gt;p11</title>
<path fill="none" stroke="black" d="M790.83,-574.65C805.07,-568.66 867.28,-542.51 912.09,-523.67"/>
<polygon fill="black" stroke="black" points="913.5,-526.88 921.37,-519.77 910.79,-520.42 913.5,-526.88"/>
</g>
<!-- p13 -->
<g id="node14" class="node">
<title>p13</title>
<ellipse fill="none" stroke="black" cx="246.85" cy="-413.8" rx="118.14" ry="18"/>
<text text-anchor="middle" x="246.85" y="-409.6" font-family="Times-Roman" font-size="14.00">QC_rmHost:FASTQCclean</text>
</g>
<!-- p11&#45;&gt;p13 -->
<g id="edge14" class="edge">
<title>p11&#45;&gt;p13</title>
<path fill="none" stroke="black" d="M867.73,-490.39C733.4,-474.03 484.75,-443.76 346.36,-426.91"/>
<polygon fill="black" stroke="black" points="346.53,-423.41 336.18,-425.68 345.68,-430.36 346.53,-423.41"/>
<text text-anchor="middle" x="679.51" y="-454" font-family="Times-Roman" font-size="14.00">data</text>
</g>
<!-- p12 -->
<g id="node15" class="node">
<title>p12</title>
<ellipse fill="black" stroke="black" cx="959.85" cy="-413.8" rx="1.8" ry="1.8"/>
</g>
<!-- p11&#45;&gt;p12 -->
<g id="edge15" class="edge">
<title>p11&#45;&gt;p12</title>
<path fill="none" stroke="black" d="M959.85,-484.45C959.85,-467.26 959.85,-441.26 959.85,-426.37"/>
<polygon fill="black" stroke="black" points="963.35,-425.92 959.85,-415.92 956.35,-425.92 963.35,-425.92"/>
<text text-anchor="middle" x="991.34" y="-454" font-family="Times-Roman" font-size="14.00">bowtie_log</text>
</g>
<!-- p18 -->
<g id="node21" class="node">
<title>p18</title>
<ellipse fill="none" stroke="black" cx="535.85" cy="-413.8" rx="85.09" ry="18"/>
<text text-anchor="middle" x="535.85" y="-409.6" font-family="Times-Roman" font-size="14.00">kraken:KRAKEN2</text>
</g>
<!-- p11&#45;&gt;p18 -->
<g id="edge21" class="edge">
<title>p11&#45;&gt;p18</title>
<path fill="none" stroke="black" d="M890.78,-487.46C811.79,-471.29 683.25,-444.98 604.46,-428.85"/>
<polygon fill="black" stroke="black" points="605.13,-425.41 594.63,-426.83 603.72,-432.27 605.13,-425.41"/>
<text text-anchor="middle" x="797.51" y="-454" font-family="Times-Roman" font-size="14.00">data</text>
</g>
<!-- p32 -->
<g id="node36" class="node">
<title>p32</title>
<ellipse fill="none" stroke="black" cx="1092.85" cy="-413.8" rx="113.46" ry="18"/>
<text text-anchor="middle" x="1092.85" y="-409.6" font-family="Times-Roman" font-size="14.00">metaphlan:METAPHLAN</text>
</g>
<!-- p11&#45;&gt;p32 -->
<g id="edge36" class="edge">
<title>p11&#45;&gt;p32</title>
<path fill="none" stroke="black" d="M994.27,-485.15C1004.95,-479.65 1016.59,-473.22 1026.85,-466.6 1040.04,-458.08 1053.83,-447.55 1065.37,-438.21"/>
<polygon fill="black" stroke="black" points="1067.83,-440.72 1073.34,-431.67 1063.39,-435.31 1067.83,-440.72"/>
<text text-anchor="middle" x="1060.51" y="-454" font-family="Times-Roman" font-size="14.00">data</text>
</g>
<!-- p41 -->
<g id="node45" class="node">
<title>p41</title>
<ellipse fill="none" stroke="black" cx="1849.85" cy="-413.8" rx="88.05" ry="18"/>
<text text-anchor="middle" x="1849.85" y="-409.6" font-family="Times-Roman" font-size="14.00">humann:HUMANN</text>
</g>
<!-- p11&#45;&gt;p41 -->
<g id="edge45" class="edge">
<title>p11&#45;&gt;p41</title>
<path fill="none" stroke="black" d="M1060.21,-491.81C1235.76,-474.69 1595.69,-439.59 1762.01,-423.37"/>
<polygon fill="black" stroke="black" points="1762.59,-426.83 1772.2,-422.37 1761.91,-419.86 1762.59,-426.83"/>
<text text-anchor="middle" x="1495.51" y="-454" font-family="Times-Roman" font-size="14.00">data</text>
</g>
<!-- p52 -->
<g id="node56" class="node">
<title>p52</title>
<ellipse fill="none" stroke="black" cx="2103.85" cy="-413.8" rx="94.34" ry="18"/>
<text text-anchor="middle" x="2103.85" y="-409.6" font-family="Times-Roman" font-size="14.00">assembly:MEGAHIT</text>
</g>
<!-- p11&#45;&gt;p52 -->
<g id="edge56" class="edge">
<title>p11&#45;&gt;p52</title>
<path fill="none" stroke="black" d="M1074.35,-495.23C1258.43,-484.6 1631.51,-461.45 1946.85,-431.8 1968.98,-429.72 1992.84,-427.25 2015.12,-424.85"/>
<polygon fill="black" stroke="black" points="2015.66,-428.31 2025.23,-423.75 2014.91,-421.35 2015.66,-428.31"/>
<text text-anchor="middle" x="1741.51" y="-454" font-family="Times-Roman" font-size="14.00">data</text>
</g>
<!-- p7 -->
<g id="node10" class="node">
<title>p7</title>
<ellipse fill="black" stroke="black" cx="946.85" cy="-651.2" rx="3.6" ry="3.6"/>
<text text-anchor="middle" x="994.37" y="-659" font-family="Times-Roman" font-size="14.00">Channel.fromPath</text>
</g>
<!-- p8 -->
<g id="node11" class="node">
<title>p8</title>
<ellipse fill="none" stroke="black" cx="946.85" cy="-576.9" rx="3.5" ry="3.5"/>
<text text-anchor="middle" x="924.69" y="-584.6" font-family="Times-Roman" font-size="14.00">collect</text>
</g>
<!-- p7&#45;&gt;p8 -->
<g id="edge10" class="edge">
<title>p7&#45;&gt;p8</title>
<path fill="none" stroke="black" d="M946.85,-647.45C946.85,-638.28 946.85,-608.31 946.85,-590.85"/>
<polygon fill="black" stroke="black" points="950.35,-590.65 946.85,-580.65 943.35,-590.65 950.35,-590.65"/>
</g>
<!-- p8&#45;&gt;p11 -->
<g id="edge11" class="edge">
<title>p8&#45;&gt;p11</title>
<path fill="none" stroke="black" d="M947.34,-573.15C948.59,-566.21 951.98,-547.36 954.91,-531.03"/>
<polygon fill="black" stroke="black" points="958.43,-531.28 956.75,-520.81 951.54,-530.04 958.43,-531.28"/>
</g>
<!-- p9 -->
<g id="node12" class="node">
<title>p9</title>
<ellipse fill="black" stroke="black" cx="971.85" cy="-651.2" rx="3.6" ry="3.6"/>
<text text-anchor="middle" x="1019.37" y="-635" font-family="Times-Roman" font-size="14.00">Channel.fromPath</text>
</g>
<!-- p10 -->
<g id="node13" class="node">
<title>p10</title>
<ellipse fill="none" stroke="black" cx="971.85" cy="-576.9" rx="3.5" ry="3.5"/>
<text text-anchor="middle" x="956.29" y="-584.6" font-family="Times-Roman" font-size="14.00">map</text>
</g>
<!-- p9&#45;&gt;p10 -->
<g id="edge12" class="edge">
<title>p9&#45;&gt;p10</title>
<path fill="none" stroke="black" d="M971.85,-647.45C971.85,-638.28 971.85,-608.31 971.85,-590.85"/>
<polygon fill="black" stroke="black" points="975.35,-590.65 971.85,-580.65 968.35,-590.65 975.35,-590.65"/>
</g>
<!-- p10&#45;&gt;p11 -->
<g id="edge13" class="edge">
<title>p10&#45;&gt;p11</title>
<path fill="none" stroke="black" d="M971.39,-573.15C970.24,-566.21 967.11,-547.36 964.4,-531.03"/>
<polygon fill="black" stroke="black" points="967.79,-530.11 962.7,-520.81 960.89,-531.25 967.79,-530.11"/>
</g>
<!-- p15 -->
<g id="node16" class="node">
<title>p15</title>
<ellipse fill="none" stroke="black" cx="118.85" cy="-325" rx="3.5" ry="3.5"/>
<text text-anchor="middle" x="96.69" y="-332.7" font-family="Times-Roman" font-size="14.00">collect</text>
</g>
<!-- p13&#45;&gt;p15 -->
<g id="edge16" class="edge">
<title>p13&#45;&gt;p15</title>
<path fill="none" stroke="black" d="M222.17,-396.06C194.33,-377.19 150.3,-347.33 129.9,-333.49"/>
<polygon fill="black" stroke="black" points="131.66,-330.46 121.42,-327.74 127.73,-336.25 131.66,-330.46"/>
</g>
<!-- p17 -->
<g id="node18" class="node">
<title>p17</title>
<ellipse fill="none" stroke="black" cx="58.85" cy="-236.2" rx="3.5" ry="3.5"/>
<text text-anchor="middle" x="36.69" y="-243.9" font-family="Times-Roman" font-size="14.00">collect</text>
</g>
<!-- p15&#45;&gt;p17 -->
<g id="edge18" class="edge">
<title>p15&#45;&gt;p17</title>
<path fill="none" stroke="black" d="M117.09,-321.84C112.72,-316.41 101.06,-301.77 92.11,-289 82.45,-275.23 72.1,-258.82 65.56,-248.22"/>
<polygon fill="black" stroke="black" points="68.5,-246.33 60.3,-239.62 62.53,-249.98 68.5,-246.33"/>
<text text-anchor="middle" x="142.22" y="-276.4" font-family="Times-Roman" font-size="14.00">fastqcoutputclean</text>
</g>
<!-- p65 -->
<g id="node19" class="node">
<title>p65</title>
<ellipse fill="none" stroke="black" cx="44.85" cy="-458.2" rx="3.5" ry="3.5"/>
<text text-anchor="middle" x="22.69" y="-465.9" font-family="Times-Roman" font-size="14.00">collect</text>
</g>
<!-- p16&#45;&gt;p65 -->
<g id="edge19" class="edge">
<title>p16&#45;&gt;p65</title>
<path fill="none" stroke="black" d="M198.4,-574.07C181.96,-561.77 87.41,-491.04 55.42,-467.11"/>
<polygon fill="black" stroke="black" points="57.28,-464.13 47.18,-460.94 53.09,-469.74 57.28,-464.13"/>
<text text-anchor="middle" x="209.01" y="-542.8" font-family="Times-Roman" font-size="14.00">Fastqcoutput</text>
</g>
<!-- p66 -->
<g id="node20" class="node">
<title>p66</title>
<ellipse fill="none" stroke="black" cx="59.85" cy="-147.4" rx="3.5" ry="3.5"/>
<text text-anchor="middle" x="37.69" y="-155.1" font-family="Times-Roman" font-size="14.00">collect</text>
</g>
<!-- p17&#45;&gt;p66 -->
<g id="edge20" class="edge">
<title>p17&#45;&gt;p66</title>
<path fill="none" stroke="black" d="M58.87,-232.7C58.99,-222.29 59.46,-182.05 59.7,-161.15"/>
<polygon fill="black" stroke="black" points="63.2,-161.12 59.81,-151.08 56.2,-161.04 63.2,-161.12"/>
<text text-anchor="middle" x="107.28" y="-187.6" font-family="Times-Roman" font-size="14.00">FASTqccleanout</text>
</g>
<!-- p68 -->
<g id="node69" class="node">
<title>p68</title>
<ellipse fill="none" stroke="black" cx="59.85" cy="-58.6" rx="59.69" ry="18"/>
<text text-anchor="middle" x="59.85" y="-54.4" font-family="Times-Roman" font-size="14.00">MULTIQC2</text>
</g>
<!-- p65&#45;&gt;p68 -->
<g id="edge69" class="edge">
<title>p65&#45;&gt;p68</title>
<path fill="none" stroke="black" d="M43.88,-454.54C40.14,-444.03 26.85,-404.26 26.85,-370.4 26.85,-370.4 26.85,-370.4 26.85,-146.4 26.85,-124.97 35.74,-102.4 44.3,-85.64"/>
<polygon fill="black" stroke="black" points="47.56,-86.96 49.22,-76.5 41.4,-83.64 47.56,-86.96"/>
</g>
<!-- p66&#45;&gt;p68 -->
<g id="edge70" class="edge">
<title>p66&#45;&gt;p68</title>
<path fill="none" stroke="black" d="M59.85,-143.9C59.85,-135.57 59.85,-108.16 59.85,-86.82"/>
<polygon fill="black" stroke="black" points="63.35,-86.65 59.85,-76.66 56.35,-86.66 63.35,-86.65"/>
</g>
<!-- p19 -->
<g id="node22" class="node">
<title>p19</title>
<ellipse fill="none" stroke="black" cx="325.85" cy="-325" rx="105.94" ry="18"/>
<text text-anchor="middle" x="325.85" y="-320.8" font-family="Times-Roman" font-size="14.00">kraken:KRAKEN2MPA</text>
</g>
<!-- p18&#45;&gt;p19 -->
<g id="edge22" class="edge">
<title>p18&#45;&gt;p19</title>
<path fill="none" stroke="black" d="M498.79,-397.48C463.94,-383.08 411.6,-361.45 373.63,-345.75"/>
<polygon fill="black" stroke="black" points="374.89,-342.48 364.31,-341.9 372.22,-348.95 374.89,-342.48"/>
<text text-anchor="middle" x="466.56" y="-365.2" font-family="Times-Roman" font-size="14.00">report</text>
</g>
<!-- p28 -->
<g id="node23" class="node">
<title>p28</title>
<ellipse fill="none" stroke="black" cx="535.85" cy="-325" rx="86.26" ry="18"/>
<text text-anchor="middle" x="535.85" y="-320.8" font-family="Times-Roman" font-size="14.00">kraken:BRACKEN</text>
</g>
<!-- p18&#45;&gt;p28 -->
<g id="edge23" class="edge">
<title>p18&#45;&gt;p28</title>
<path fill="none" stroke="black" d="M535.85,-395.65C535.85,-383.52 535.85,-367.02 535.85,-353.12"/>
<polygon fill="black" stroke="black" points="539.35,-353.11 535.85,-343.11 532.35,-353.11 539.35,-353.11"/>
</g>
<!-- p20 -->
<g id="node25" class="node">
<title>p20</title>
<ellipse fill="none" stroke="black" cx="194.85" cy="-325" rx="3.5" ry="3.5"/>
<text text-anchor="middle" x="172.69" y="-332.7" font-family="Times-Roman" font-size="14.00">collect</text>
</g>
<!-- p18&#45;&gt;p20 -->
<g id="edge25" class="edge">
<title>p18&#45;&gt;p20</title>
<path fill="none" stroke="black" d="M467.44,-403.01C385.54,-390.44 254.01,-367.35 210.85,-343 207.8,-341.28 204.99,-338.79 202.6,-336.25"/>
<polygon fill="black" stroke="black" points="205.35,-334.07 196.39,-328.41 199.86,-338.42 205.35,-334.07"/>
</g>
<!-- p22 -->
<g id="node28" class="node">
<title>p22</title>
<ellipse fill="none" stroke="black" cx="643.85" cy="-325" rx="3.5" ry="3.5"/>
<text text-anchor="middle" x="659" y="-332.7" font-family="Times-Roman" font-size="14.00">collect</text>
</g>
<!-- p18&#45;&gt;p22 -->
<g id="edge28" class="edge">
<title>p18&#45;&gt;p22</title>
<path fill="none" stroke="black" d="M561.99,-396.53C582,-383.41 609.66,-363.78 630.85,-343 632.74,-341.14 634.59,-338.99 636.28,-336.86"/>
<polygon fill="black" stroke="black" points="639.22,-338.77 642.2,-328.6 633.53,-334.69 639.22,-338.77"/>
</g>
<!-- p25 -->
<g id="node24" class="node">
<title>p25</title>
<ellipse fill="none" stroke="black" cx="328.85" cy="-236.2" rx="3.5" ry="3.5"/>
<text text-anchor="middle" x="344" y="-243.9" font-family="Times-Roman" font-size="14.00">collect</text>
</g>
<!-- p19&#45;&gt;p25 -->
<g id="edge24" class="edge">
<title>p19&#45;&gt;p25</title>
<path fill="none" stroke="black" d="M326.44,-306.85C327.01,-290.19 327.88,-265.26 328.4,-250.18"/>
<polygon fill="black" stroke="black" points="331.9,-250.04 328.75,-239.92 324.91,-249.8 331.9,-250.04"/>
</g>
<!-- p29 -->
<g id="node33" class="node">
<title>p29</title>
<ellipse fill="none" stroke="black" cx="465.85" cy="-236.2" rx="3.5" ry="3.5"/>
<text text-anchor="middle" x="443.69" y="-243.9" font-family="Times-Roman" font-size="14.00">collect</text>
</g>
<!-- p28&#45;&gt;p29 -->
<g id="edge33" class="edge">
<title>p28&#45;&gt;p29</title>
<path fill="none" stroke="black" d="M521.87,-307.2C510.24,-293.13 493.3,-272.49 478.85,-254.2 477.2,-252.12 475.46,-249.87 473.8,-247.71"/>
<polygon fill="black" stroke="black" points="476.51,-245.49 467.67,-239.64 470.93,-249.72 476.51,-245.49"/>
<text text-anchor="middle" x="550.39" y="-276.4" font-family="Times-Roman" font-size="14.00">bracken_output</text>
</g>
<!-- p26 -->
<g id="node31" class="node">
<title>p26</title>
<ellipse fill="none" stroke="black" cx="240.85" cy="-147.4" rx="134.87" ry="18"/>
<text text-anchor="middle" x="240.85" y="-143.2" font-family="Times-Roman" font-size="14.00">kraken:KRAKENMPAMERGE</text>
</g>
<!-- p25&#45;&gt;p26 -->
<g id="edge31" class="edge">
<title>p25&#45;&gt;p26</title>
<path fill="none" stroke="black" d="M327.12,-232.68C324.74,-229.26 320.24,-223.04 315.85,-218.2 301.12,-201.98 283.2,-185.2 268.57,-172.17"/>
<polygon fill="black" stroke="black" points="270.64,-169.32 260.82,-165.34 266.01,-174.57 270.64,-169.32"/>
</g>
<!-- p21 -->
<g id="node26" class="node">
<title>p21</title>
<ellipse fill="none" stroke="black" cx="193.85" cy="-236.2" rx="113.45" ry="18"/>
<text text-anchor="middle" x="193.85" y="-232" font-family="Times-Roman" font-size="14.00">kraken:KRAKEN2YAML</text>
</g>
<!-- p20&#45;&gt;p21 -->
<g id="edge26" class="edge">
<title>p20&#45;&gt;p21</title>
<path fill="none" stroke="black" d="M194.82,-321.5C194.72,-313.17 194.41,-285.76 194.16,-264.42"/>
<polygon fill="black" stroke="black" points="197.66,-264.21 194.04,-254.26 190.66,-264.29 197.66,-264.21"/>
</g>
<!-- p67 -->
<g id="node27" class="node">
<title>p67</title>
<ellipse fill="none" stroke="black" cx="84.85" cy="-147.4" rx="3.5" ry="3.5"/>
<text text-anchor="middle" x="62.69" y="-131.3" font-family="Times-Roman" font-size="14.00">collect</text>
</g>
<!-- p21&#45;&gt;p67 -->
<g id="edge27" class="edge">
<title>p21&#45;&gt;p67</title>
<path fill="none" stroke="black" d="M186.11,-217.95C180.18,-206.58 170.95,-192.22 158.85,-183.4 135.65,-166.51 120.21,-182.06 96.85,-165.4 94.65,-163.83 92.71,-161.73 91.07,-159.54"/>
<polygon fill="black" stroke="black" points="93.98,-157.59 85.87,-150.76 87.95,-161.15 93.98,-157.59"/>
<text text-anchor="middle" x="209.06" y="-187.6" font-family="Times-Roman" font-size="14.00">report_yaml</text>
</g>
<!-- p67&#45;&gt;p68 -->
<g id="edge71" class="edge">
<title>p67&#45;&gt;p68</title>
<path fill="none" stroke="black" d="M84.13,-143.58C82.13,-135.77 76.28,-113.2 70.85,-94.6 70.07,-91.94 69.24,-89.17 68.39,-86.41"/>
<polygon fill="black" stroke="black" points="71.67,-85.16 65.36,-76.65 64.98,-87.24 71.67,-85.16"/>
</g>
<!-- p23 -->
<g id="node29" class="node">
<title>p23</title>
<ellipse fill="none" stroke="black" cx="643.85" cy="-236.2" rx="156.3" ry="18"/>
<text text-anchor="middle" x="643.85" y="-232" font-family="Times-Roman" font-size="14.00">kraken:KRAKENMERGEREPORTS</text>
</g>
<!-- p22&#45;&gt;p23 -->
<g id="edge29" class="edge">
<title>p22&#45;&gt;p23</title>
<path fill="none" stroke="black" d="M643.85,-321.5C643.85,-313.17 643.85,-285.76 643.85,-264.42"/>
<polygon fill="black" stroke="black" points="647.35,-264.25 643.85,-254.26 640.35,-264.26 647.35,-264.25"/>
</g>
<!-- p24 -->
<g id="node30" class="node">
<title>p24</title>
<ellipse fill="black" stroke="black" cx="653.85" cy="-147.4" rx="1.8" ry="1.8"/>
</g>
<!-- p23&#45;&gt;p24 -->
<g id="edge30" class="edge">
<title>p23&#45;&gt;p24</title>
<path fill="none" stroke="black" d="M645.82,-218.05C647.82,-200.68 650.86,-174.32 652.57,-159.51"/>
<polygon fill="black" stroke="black" points="656.05,-159.85 653.72,-149.52 649.1,-159.05 656.05,-159.85"/>
<text text-anchor="middle" x="697.66" y="-187.6" font-family="Times-Roman" font-size="14.00">report_combined</text>
</g>
<!-- p27 -->
<g id="node32" class="node">
<title>p27</title>
<ellipse fill="black" stroke="black" cx="240.85" cy="-58.6" rx="1.8" ry="1.8"/>
</g>
<!-- p26&#45;&gt;p27 -->
<g id="edge32" class="edge">
<title>p26&#45;&gt;p27</title>
<path fill="none" stroke="black" d="M240.85,-129.25C240.85,-112.06 240.85,-86.06 240.85,-71.17"/>
<polygon fill="black" stroke="black" points="244.35,-70.72 240.85,-60.72 237.35,-70.72 244.35,-70.72"/>
<text text-anchor="middle" x="273.5" y="-98.8" font-family="Times-Roman" font-size="14.00">abundances</text>
</g>
<!-- p30 -->
<g id="node34" class="node">
<title>p30</title>
<ellipse fill="none" stroke="black" cx="513.85" cy="-147.4" rx="119.84" ry="18"/>
<text text-anchor="middle" x="513.85" y="-143.2" font-family="Times-Roman" font-size="14.00">kraken:BRACKENMERGE</text>
</g>
<!-- p29&#45;&gt;p30 -->
<g id="edge34" class="edge">
<title>p29&#45;&gt;p30</title>
<path fill="none" stroke="black" d="M467.23,-232.7C471.92,-224.22 487.55,-195.95 499.43,-174.46"/>
<polygon fill="black" stroke="black" points="502.64,-175.9 504.41,-165.46 496.51,-172.51 502.64,-175.9"/>
</g>
<!-- p31 -->
<g id="node35" class="node">
<title>p31</title>
<ellipse fill="black" stroke="black" cx="513.85" cy="-58.6" rx="1.8" ry="1.8"/>
</g>
<!-- p30&#45;&gt;p31 -->
<g id="edge35" class="edge">
<title>p30&#45;&gt;p31</title>
<path fill="none" stroke="black" d="M513.85,-129.25C513.85,-112.06 513.85,-86.06 513.85,-71.17"/>
<polygon fill="black" stroke="black" points="517.35,-70.72 513.85,-60.72 510.35,-70.72 517.35,-70.72"/>
<text text-anchor="middle" x="560.49" y="-98.8" font-family="Times-Roman" font-size="14.00">bracken_merged</text>
</g>
<!-- p35 -->
<g id="node37" class="node">
<title>p35</title>
<ellipse fill="none" stroke="black" cx="994.85" cy="-325" rx="3.5" ry="3.5"/>
<text text-anchor="middle" x="972.69" y="-332.7" font-family="Times-Roman" font-size="14.00">collect</text>
</g>
<!-- p32&#45;&gt;p35 -->
<g id="edge37" class="edge">
<title>p32&#45;&gt;p35</title>
<path fill="none" stroke="black" d="M1033.69,-398.29C1023.1,-393.33 1013.08,-386.68 1005.64,-377.8 996.55,-366.95 994.49,-350.41 994.29,-338.95"/>
<polygon fill="black" stroke="black" points="997.8,-338.84 994.58,-328.74 990.8,-338.64 997.8,-338.84"/>
<text text-anchor="middle" x="1046.45" y="-365.2" font-family="Times-Roman" font-size="14.00">metaphlan_out</text>
</g>
<!-- p34 -->
<g id="node38" class="node">
<title>p34</title>
<ellipse fill="black" stroke="black" cx="1092.85" cy="-325" rx="1.8" ry="1.8"/>
</g>
<!-- p32&#45;&gt;p34 -->
<g id="edge38" class="edge">
<title>p32&#45;&gt;p34</title>
<path fill="none" stroke="black" d="M1092.85,-395.65C1092.85,-378.46 1092.85,-352.46 1092.85,-337.57"/>
<polygon fill="black" stroke="black" points="1096.35,-337.12 1092.85,-327.12 1089.35,-337.12 1096.35,-337.12"/>
</g>
<!-- p33 -->
<g id="node39" class="node">
<title>p33</title>
<ellipse fill="black" stroke="black" cx="1117.85" cy="-325" rx="1.8" ry="1.8"/>
</g>
<!-- p32&#45;&gt;p33 -->
<g id="edge39" class="edge">
<title>p32&#45;&gt;p33</title>
<path fill="none" stroke="black" d="M1098.36,-395.75C1100.16,-390.06 1102.13,-383.67 1103.85,-377.8 1107.91,-363.87 1112.21,-347.72 1114.96,-337.2"/>
<polygon fill="black" stroke="black" points="1118.41,-337.84 1117.52,-327.29 1111.63,-336.09 1118.41,-337.84"/>
</g>
<!-- p38 -->
<g id="node42" class="node">
<title>p38</title>
<ellipse fill="none" stroke="black" cx="1309.85" cy="-325" rx="3.5" ry="3.5"/>
<text text-anchor="middle" x="1287.69" y="-332.7" font-family="Times-Roman" font-size="14.00">collect</text>
</g>
<!-- p32&#45;&gt;p38 -->
<g id="edge42" class="edge">
<title>p32&#45;&gt;p38</title>
<path fill="none" stroke="black" d="M1132.65,-396.88C1182.77,-376.83 1266.11,-343.49 1297.44,-330.96"/>
<polygon fill="black" stroke="black" points="1298.98,-334.12 1306.96,-327.15 1296.38,-327.62 1298.98,-334.12"/>
</g>
<!-- p36 -->
<g id="node40" class="node">
<title>p36</title>
<ellipse fill="none" stroke="black" cx="994.85" cy="-236.2" rx="176.49" ry="18"/>
<text text-anchor="middle" x="994.85" y="-232" font-family="Times-Roman" font-size="14.00">metaphlan:ABUNDANCE_REL_MERGE</text>
</g>
<!-- p35&#45;&gt;p36 -->
<g id="edge40" class="edge">
<title>p35&#45;&gt;p36</title>
<path fill="none" stroke="black" d="M994.85,-321.5C994.85,-313.17 994.85,-285.76 994.85,-264.42"/>
<polygon fill="black" stroke="black" points="998.35,-264.25 994.85,-254.26 991.35,-264.26 998.35,-264.25"/>
</g>
<!-- p37 -->
<g id="node41" class="node">
<title>p37</title>
<ellipse fill="black" stroke="black" cx="994.85" cy="-147.4" rx="1.8" ry="1.8"/>
</g>
<!-- p36&#45;&gt;p37 -->
<g id="edge41" class="edge">
<title>p36&#45;&gt;p37</title>
<path fill="none" stroke="black" d="M994.85,-218.05C994.85,-200.86 994.85,-174.86 994.85,-159.97"/>
<polygon fill="black" stroke="black" points="998.35,-159.52 994.85,-149.52 991.35,-159.52 998.35,-159.52"/>
<text text-anchor="middle" x="1027.5" y="-187.6" font-family="Times-Roman" font-size="14.00">abundances</text>
</g>
<!-- p39 -->
<g id="node43" class="node">
<title>p39</title>
<ellipse fill="none" stroke="black" cx="1365.85" cy="-236.2" rx="176.57" ry="18"/>
<text text-anchor="middle" x="1365.85" y="-232" font-family="Times-Roman" font-size="14.00">metaphlan:ABUNDANCE_ABS_MERGE</text>
</g>
<!-- p38&#45;&gt;p39 -->
<g id="edge43" class="edge">
<title>p38&#45;&gt;p39</title>
<path fill="none" stroke="black" d="M1311.46,-321.5C1316.98,-312.95 1335.5,-284.24 1349.4,-262.69"/>
<polygon fill="black" stroke="black" points="1352.36,-264.56 1354.84,-254.26 1346.48,-260.76 1352.36,-264.56"/>
</g>
<!-- p40 -->
<g id="node44" class="node">
<title>p40</title>
<ellipse fill="black" stroke="black" cx="1365.85" cy="-147.4" rx="1.8" ry="1.8"/>
</g>
<!-- p39&#45;&gt;p40 -->
<g id="edge44" class="edge">
<title>p39&#45;&gt;p40</title>
<path fill="none" stroke="black" d="M1365.85,-218.05C1365.85,-200.86 1365.85,-174.86 1365.85,-159.97"/>
<polygon fill="black" stroke="black" points="1369.35,-159.52 1365.85,-149.52 1362.35,-159.52 1369.35,-159.52"/>
<text text-anchor="middle" x="1398.5" y="-187.6" font-family="Times-Roman" font-size="14.00">abundances</text>
</g>
<!-- p43 -->
<g id="node46" class="node">
<title>p43</title>
<ellipse fill="none" stroke="black" cx="1692.85" cy="-325" rx="3.5" ry="3.5"/>
<text text-anchor="middle" x="1670.69" y="-332.7" font-family="Times-Roman" font-size="14.00">collect</text>
</g>
<!-- p41&#45;&gt;p43 -->
<g id="edge46" class="edge">
<title>p41&#45;&gt;p43</title>
<path fill="none" stroke="black" d="M1810.65,-397.49C1797.28,-391.81 1782.41,-385 1769.32,-377.8 1744.44,-364.12 1717.4,-344.59 1703.09,-333.84"/>
<polygon fill="black" stroke="black" points="1705.2,-331.05 1695.12,-327.78 1700.96,-336.62 1705.2,-331.05"/>
<text text-anchor="middle" x="1804.61" y="-365.2" font-family="Times-Roman" font-size="14.00">genefamilies</text>
</g>
<!-- p46 -->
<g id="node47" class="node">
<title>p46</title>
<ellipse fill="none" stroke="black" cx="1923.85" cy="-325" rx="3.5" ry="3.5"/>
<text text-anchor="middle" x="1901.69" y="-332.7" font-family="Times-Roman" font-size="14.00">collect</text>
</g>
<!-- p41&#45;&gt;p46 -->
<g id="edge47" class="edge">
<title>p41&#45;&gt;p46</title>
<path fill="none" stroke="black" d="M1845.88,-395.63C1844.38,-384.85 1844.36,-371.14 1850.88,-361 1864.22,-340.27 1893.54,-331.52 1910.67,-328.06"/>
<polygon fill="black" stroke="black" points="1911.32,-331.5 1920.6,-326.38 1910.15,-324.6 1911.32,-331.5"/>
<text text-anchor="middle" x="1892.83" y="-365.2" font-family="Times-Roman" font-size="14.00">pathabundance</text>
</g>
<!-- p49 -->
<g id="node48" class="node">
<title>p49</title>
<ellipse fill="none" stroke="black" cx="1990.85" cy="-325" rx="3.5" ry="3.5"/>
<text text-anchor="middle" x="1968.69" y="-332.7" font-family="Times-Roman" font-size="14.00">collect</text>
</g>
<!-- p41&#45;&gt;p49 -->
<g id="edge48" class="edge">
<title>p41&#45;&gt;p49</title>
<path fill="none" stroke="black" d="M1894.13,-398.02C1907.7,-392.59 1922.34,-385.79 1934.85,-377.8 1953.49,-365.89 1971.65,-347.46 1982.02,-336.1"/>
<polygon fill="black" stroke="black" points="1984.94,-338.08 1988.94,-328.27 1979.69,-333.44 1984.94,-338.08"/>
<text text-anchor="middle" x="1993.16" y="-365.2" font-family="Times-Roman" font-size="14.00">pathcoverage</text>
</g>
<!-- p42 -->
<g id="node49" class="node">
<title>p42</title>
<ellipse fill="black" stroke="black" cx="2046.85" cy="-325" rx="1.8" ry="1.8"/>
</g>
<!-- p41&#45;&gt;p42 -->
<g id="edge49" class="edge">
<title>p41&#45;&gt;p42</title>
<path fill="none" stroke="black" d="M1929.47,-405.92C1971.56,-400.7 2017.61,-391.93 2032.85,-377.8 2044.11,-367.35 2046.67,-348.86 2047.07,-337.03"/>
<polygon fill="black" stroke="black" points="2050.57,-336.84 2046.92,-326.89 2043.57,-336.94 2050.57,-336.84"/>
</g>
<!-- p44 -->
<g id="node50" class="node">
<title>p44</title>
<ellipse fill="none" stroke="black" cx="1675.85" cy="-236.2" rx="115.17" ry="18"/>
<text text-anchor="middle" x="1675.85" y="-232" font-family="Times-Roman" font-size="14.00">humann:JOINgenefamilies</text>
</g>
<!-- p43&#45;&gt;p44 -->
<g id="edge50" class="edge">
<title>p43&#45;&gt;p44</title>
<path fill="none" stroke="black" d="M1692.36,-321.5C1690.72,-313.14 1685.31,-285.51 1681.12,-264.13"/>
<polygon fill="black" stroke="black" points="1684.54,-263.4 1679.19,-254.26 1677.67,-264.74 1684.54,-263.4"/>
</g>
<!-- p47 -->
<g id="node52" class="node">
<title>p47</title>
<ellipse fill="none" stroke="black" cx="1932.85" cy="-236.2" rx="123.83" ry="18"/>
<text text-anchor="middle" x="1932.85" y="-232" font-family="Times-Roman" font-size="14.00">humann:JOINpathabundance</text>
</g>
<!-- p46&#45;&gt;p47 -->
<g id="edge52" class="edge">
<title>p46&#45;&gt;p47</title>
<path fill="none" stroke="black" d="M1924.11,-321.5C1924.97,-313.17 1927.81,-285.76 1930.02,-264.42"/>
<polygon fill="black" stroke="black" points="1933.53,-264.56 1931.08,-254.26 1926.56,-263.84 1933.53,-264.56"/>
</g>
<!-- p50 -->
<g id="node54" class="node">
<title>p50</title>
<ellipse fill="none" stroke="black" cx="2191.85" cy="-236.2" rx="117.44" ry="18"/>
<text text-anchor="middle" x="2191.85" y="-232" font-family="Times-Roman" font-size="14.00">humann:JOINpathcoverage</text>
</g>
<!-- p49&#45;&gt;p50 -->
<g id="edge54" class="edge">
<title>p49&#45;&gt;p50</title>
<path fill="none" stroke="black" d="M1993.69,-322.77C2009.89,-315.78 2091.78,-280.41 2145.09,-257.39"/>
<polygon fill="black" stroke="black" points="2146.57,-260.56 2154.36,-253.39 2143.79,-254.14 2146.57,-260.56"/>
</g>
<!-- p45 -->
<g id="node51" class="node">
<title>p45</title>
<ellipse fill="black" stroke="black" cx="1675.85" cy="-147.4" rx="1.8" ry="1.8"/>
</g>
<!-- p44&#45;&gt;p45 -->
<g id="edge51" class="edge">
<title>p44&#45;&gt;p45</title>
<path fill="none" stroke="black" d="M1675.85,-218.05C1675.85,-200.86 1675.85,-174.86 1675.85,-159.97"/>
<polygon fill="black" stroke="black" points="1679.35,-159.52 1675.85,-149.52 1672.35,-159.52 1679.35,-159.52"/>
<text text-anchor="middle" x="1710.44" y="-187.6" font-family="Times-Roman" font-size="14.00">mergedtable</text>
</g>
<!-- p48 -->
<g id="node53" class="node">
<title>p48</title>
<ellipse fill="black" stroke="black" cx="1932.85" cy="-147.4" rx="1.8" ry="1.8"/>
</g>
<!-- p47&#45;&gt;p48 -->
<g id="edge53" class="edge">
<title>p47&#45;&gt;p48</title>
<path fill="none" stroke="black" d="M1932.85,-218.05C1932.85,-200.86 1932.85,-174.86 1932.85,-159.97"/>
<polygon fill="black" stroke="black" points="1936.35,-159.52 1932.85,-149.52 1929.35,-159.52 1936.35,-159.52"/>
<text text-anchor="middle" x="1967.44" y="-187.6" font-family="Times-Roman" font-size="14.00">mergedtable</text>
</g>
<!-- p51 -->
<g id="node55" class="node">
<title>p51</title>
<ellipse fill="black" stroke="black" cx="2191.85" cy="-147.4" rx="1.8" ry="1.8"/>
</g>
<!-- p50&#45;&gt;p51 -->
<g id="edge55" class="edge">
<title>p50&#45;&gt;p51</title>
<path fill="none" stroke="black" d="M2191.85,-218.05C2191.85,-200.86 2191.85,-174.86 2191.85,-159.97"/>
<polygon fill="black" stroke="black" points="2195.35,-159.52 2191.85,-149.52 2188.35,-159.52 2195.35,-159.52"/>
<text text-anchor="middle" x="2226.44" y="-187.6" font-family="Times-Roman" font-size="14.00">mergedtable</text>
</g>
<!-- p53 -->
<g id="node57" class="node">
<title>p53</title>
<ellipse fill="black" stroke="black" cx="2103.85" cy="-325" rx="1.8" ry="1.8"/>
</g>
<!-- p52&#45;&gt;p53 -->
<g id="edge57" class="edge">
<title>p52&#45;&gt;p53</title>
<path fill="none" stroke="black" d="M2103.85,-395.65C2103.85,-378.46 2103.85,-352.46 2103.85,-337.57"/>
<polygon fill="black" stroke="black" points="2107.35,-337.12 2103.85,-327.12 2100.35,-337.12 2107.35,-337.12"/>
</g>
<!-- p54 -->
<g id="node58" class="node">
<title>p54</title>
<ellipse fill="none" stroke="black" cx="2235.85" cy="-325" rx="96.14" ry="18"/>
<text text-anchor="middle" x="2235.85" y="-320.8" font-family="Times-Roman" font-size="14.00">assembly:filtercontigs</text>
</g>
<!-- p52&#45;&gt;p54 -->
<g id="edge58" class="edge">
<title>p52&#45;&gt;p54</title>
<path fill="none" stroke="black" d="M2128.98,-396.27C2149.81,-382.57 2179.59,-362.99 2202.42,-347.98"/>
<polygon fill="black" stroke="black" points="2204.37,-350.89 2210.8,-342.47 2200.52,-345.04 2204.37,-350.89"/>
</g>
<!-- p55 -->
<g id="node59" class="node">
<title>p55</title>
<ellipse fill="none" stroke="black" cx="2419.85" cy="-236.2" rx="93.21" ry="18"/>
<text text-anchor="middle" x="2419.85" y="-232" font-family="Times-Roman" font-size="14.00">assembly:MAPPING</text>
</g>
<!-- p54&#45;&gt;p55 -->
<g id="edge59" class="edge">
<title>p54&#45;&gt;p55</title>
<path fill="none" stroke="black" d="M2269.59,-308.08C2299.81,-293.83 2344.27,-272.85 2376.99,-257.42"/>
<polygon fill="black" stroke="black" points="2378.76,-260.45 2386.31,-253.02 2375.77,-254.12 2378.76,-260.45"/>
</g>
<!-- p56 -->
<g id="node60" class="node">
<title>p56</title>
<ellipse fill="none" stroke="black" cx="2335.85" cy="-147.4" rx="96.15" ry="18"/>
<text text-anchor="middle" x="2335.85" y="-143.2" font-family="Times-Roman" font-size="14.00">assembly:METABAT</text>
</g>
<!-- p55&#45;&gt;p56 -->
<g id="edge60" class="edge">
<title>p55&#45;&gt;p56</title>
<path fill="none" stroke="black" d="M2403.65,-218.46C2391.06,-205.46 2373.43,-187.24 2359.3,-172.64"/>
<polygon fill="black" stroke="black" points="2361.75,-170.13 2352.28,-165.38 2356.72,-175 2361.75,-170.13"/>
</g>
<!-- p63 -->
<g id="node61" class="node">
<title>p63</title>
<ellipse fill="none" stroke="black" cx="2611.85" cy="-147.4" rx="107.1" ry="18"/>
<text text-anchor="middle" x="2611.85" y="-143.2" font-family="Times-Roman" font-size="14.00">assembly:getCountTable</text>
</g>
<!-- p55&#45;&gt;p63 -->
<g id="edge61" class="edge">
<title>p55&#45;&gt;p63</title>
<path fill="none" stroke="black" d="M2454.62,-219.48C2486.13,-205.24 2532.74,-184.16 2567.04,-168.66"/>
<polygon fill="black" stroke="black" points="2568.69,-171.75 2576.36,-164.44 2565.81,-165.37 2568.69,-171.75"/>
</g>
<!-- p57 -->
<g id="node62" class="node">
<title>p57</title>
<ellipse fill="none" stroke="black" cx="2050.85" cy="-58.6" rx="110.64" ry="18"/>
<text text-anchor="middle" x="2050.85" y="-54.4" font-family="Times-Roman" font-size="14.00">assembly:contigs_to_bins</text>
</g>
<!-- p56&#45;&gt;p57 -->
<g id="edge62" class="edge">
<title>p56&#45;&gt;p57</title>
<path fill="none" stroke="black" d="M2287.82,-131.77C2238.94,-116.89 2163.06,-93.78 2110.39,-77.73"/>
<polygon fill="black" stroke="black" points="2111.09,-74.29 2100.5,-74.72 2109.05,-80.99 2111.09,-74.29"/>
</g>
<!-- p59 -->
<g id="node64" class="node">
<title>p59</title>
<ellipse fill="none" stroke="black" cx="2294.85" cy="-58.6" rx="115.19" ry="18"/>
<text text-anchor="middle" x="2294.85" y="-54.4" font-family="Times-Roman" font-size="14.00">assembly:checkm_all_bins</text>
</g>
<!-- p56&#45;&gt;p59 -->
<g id="edge64" class="edge">
<title>p56&#45;&gt;p59</title>
<path fill="none" stroke="black" d="M2327.75,-129.25C2321.91,-116.89 2313.91,-99.97 2307.27,-85.9"/>
<polygon fill="black" stroke="black" points="2310.36,-84.26 2302.93,-76.71 2304.04,-87.25 2310.36,-84.26"/>
</g>
<!-- p61 -->
<g id="node66" class="node">
<title>p61</title>
<ellipse fill="none" stroke="black" cx="2516.85" cy="-58.6" rx="88.62" ry="18"/>
<text text-anchor="middle" x="2516.85" y="-54.4" font-family="Times-Roman" font-size="14.00">assembly:GTDBTK</text>
</g>
<!-- p56&#45;&gt;p61 -->
<g id="edge66" class="edge">
<title>p56&#45;&gt;p61</title>
<path fill="none" stroke="black" d="M2369.04,-130.48C2398.77,-116.23 2442.5,-95.25 2474.69,-79.82"/>
<polygon fill="black" stroke="black" points="2476.35,-82.9 2483.86,-75.42 2473.33,-76.59 2476.35,-82.9"/>
</g>
<!-- p64 -->
<g id="node68" class="node">
<title>p64</title>
<ellipse fill="black" stroke="black" cx="2625.85" cy="-58.6" rx="1.8" ry="1.8"/>
</g>
<!-- p63&#45;&gt;p64 -->
<g id="edge68" class="edge">
<title>p63&#45;&gt;p64</title>
<path fill="none" stroke="black" d="M2614.61,-129.25C2617.41,-111.88 2621.67,-85.52 2624.05,-70.71"/>
<polygon fill="black" stroke="black" points="2627.53,-71.15 2625.67,-60.72 2620.62,-70.03 2627.53,-71.15"/>
</g>
<!-- p58 -->
<g id="node63" class="node">
<title>p58</title>
<ellipse fill="black" stroke="black" cx="2050.85" cy="-1.8" rx="1.8" ry="1.8"/>
</g>
<!-- p57&#45;&gt;p58 -->
<g id="edge63" class="edge">
<title>p57&#45;&gt;p58</title>
<path fill="none" stroke="black" d="M2050.85,-40.56C2050.85,-31.87 2050.85,-21.56 2050.85,-13.9"/>
<polygon fill="black" stroke="black" points="2054.35,-13.76 2050.85,-3.76 2047.35,-13.76 2054.35,-13.76"/>
</g>
<!-- p60 -->
<g id="node65" class="node">
<title>p60</title>
<ellipse fill="black" stroke="black" cx="2294.85" cy="-1.8" rx="1.8" ry="1.8"/>
</g>
<!-- p59&#45;&gt;p60 -->
<g id="edge65" class="edge">
<title>p59&#45;&gt;p60</title>
<path fill="none" stroke="black" d="M2294.85,-40.56C2294.85,-31.87 2294.85,-21.56 2294.85,-13.9"/>
<polygon fill="black" stroke="black" points="2298.35,-13.76 2294.85,-3.76 2291.35,-13.76 2298.35,-13.76"/>
</g>
<!-- p62 -->
<g id="node67" class="node">
<title>p62</title>
<ellipse fill="black" stroke="black" cx="2516.85" cy="-1.8" rx="1.8" ry="1.8"/>
</g>
<!-- p61&#45;&gt;p62 -->
<g id="edge67" class="edge">
<title>p61&#45;&gt;p62</title>
<path fill="none" stroke="black" d="M2516.85,-40.56C2516.85,-31.87 2516.85,-21.56 2516.85,-13.9"/>
<polygon fill="black" stroke="black" points="2520.35,-13.76 2516.85,-3.76 2513.35,-13.76 2520.35,-13.76"/>
</g>
<!-- p69 -->
<g id="node70" class="node">
<title>p69</title>
<ellipse fill="black" stroke="black" cx="59.85" cy="-1.8" rx="1.8" ry="1.8"/>
</g>
<!-- p68&#45;&gt;p69 -->
<g id="edge72" class="edge">
<title>p68&#45;&gt;p69</title>
<path fill="none" stroke="black" d="M59.85,-40.56C59.85,-31.87 59.85,-21.56 59.85,-13.9"/>
<polygon fill="black" stroke="black" points="63.35,-13.76 59.85,-3.76 56.35,-13.76 63.35,-13.76"/>
</g>
</g>
</svg>
