<?xml version="1.0" encoding="UTF-8" standalone="no"?>
<!DOCTYPE svg PUBLIC "-//W3C//DTD SVG 1.1//EN"
 "http://www.w3.org/Graphics/SVG/1.1/DTD/svg11.dtd">
<!-- Generated by graphviz version 2.42.3 (20191010.1750)
 -->
<!-- Title: metaphlan_dag Pages: 1 -->
<svg width="967pt" height="711pt"
 viewBox="0.00 0.00 967.39 710.80" xmlns="http://www.w3.org/2000/svg" xmlns:xlink="http://www.w3.org/1999/xlink">
<g id="graph0" class="graph" transform="scale(1 1) rotate(0) translate(4 706.8)">
<title>metaphlan_dag</title>
<polygon fill="white" stroke="transparent" points="-4,4 -4,-706.8 963.39,-706.8 963.39,4 -4,4"/>
<!-- p0 -->
<g id="node1" class="node">
<title>p0</title>
<ellipse fill="black" stroke="black" cx="297.5" cy="-684.2" rx="3.6" ry="3.6"/>
<text text-anchor="middle" x="231.9" y="-691.6" font-family="Times,serif" font-size="14.00">Channel.fromFilePairs</text>
</g>
<!-- p1 -->
<g id="node2" class="node">
<title>p1</title>
<ellipse fill="none" stroke="black" cx="297.5" cy="-640.1" rx="3.5" ry="3.5"/>
<text text-anchor="middle" x="271" y="-647.4" font-family="Times,serif" font-size="14.00">ifEmpty</text>
</g>
<!-- p0&#45;&gt;p1 -->
<g id="edge1" class="edge">
<title>p0&#45;&gt;p1</title>
<path fill="none" stroke="black" d="M297.5,-680.44C297.5,-675.15 297.5,-663.28 297.5,-653.95"/>
<polygon fill="black" stroke="black" points="301,-653.93 297.5,-643.93 294,-653.93 301,-653.93"/>
</g>
<!-- p2 -->
<g id="node3" class="node">
<title>p2</title>
<ellipse fill="none" stroke="black" cx="189.5" cy="-567.6" rx="89.88" ry="18"/>
<text text-anchor="middle" x="189.5" y="-563.9" font-family="Times,serif" font-size="14.00">QC_rmHost:FASTQC</text>
</g>
<!-- p1&#45;&gt;p2 -->
<g id="edge2" class="edge">
<title>p1&#45;&gt;p2</title>
<path fill="none" stroke="black" d="M294.83,-637.36C285.04,-630.97 250.28,-608.28 223.34,-590.69"/>
<polygon fill="black" stroke="black" points="225.19,-587.72 214.91,-585.18 221.37,-593.58 225.19,-587.72"/>
<text text-anchor="middle" x="291" y="-607.4" font-family="Times,serif" font-size="14.00">reads_ch</text>
</g>
<!-- p3 -->
<g id="node5" class="node">
<title>p3</title>
<ellipse fill="none" stroke="black" cx="454.5" cy="-567.6" rx="107.78" ry="18"/>
<text text-anchor="middle" x="454.5" y="-563.9" font-family="Times,serif" font-size="14.00">QC_rmHost:TRIMREADS</text>
</g>
<!-- p1&#45;&gt;p3 -->
<g id="edge4" class="edge">
<title>p1&#45;&gt;p3</title>
<path fill="none" stroke="black" d="M300.23,-637.88C313.07,-632.11 368.64,-607.15 409.42,-588.84"/>
<polygon fill="black" stroke="black" points="410.96,-591.99 418.65,-584.7 408.1,-585.6 410.96,-591.99"/>
<text text-anchor="middle" x="401" y="-607.4" font-family="Times,serif" font-size="14.00">reads_ch</text>
</g>
<!-- p15 -->
<g id="node4" class="node">
<title>p15</title>
<ellipse fill="none" stroke="black" cx="40.5" cy="-494.6" rx="3.5" ry="3.5"/>
<text text-anchor="middle" x="18.5" y="-501.9" font-family="Times,serif" font-size="14.00">collect</text>
</g>
<!-- p2&#45;&gt;p15 -->
<g id="edge3" class="edge">
<title>p2&#45;&gt;p15</title>
<path fill="none" stroke="black" d="M135.35,-553.22C108.5,-544.71 76.73,-531.63 52.5,-512.6 50.62,-511.13 48.92,-509.28 47.42,-507.36"/>
<polygon fill="black" stroke="black" points="50.08,-505.02 41.82,-498.39 44.15,-508.73 50.08,-505.02"/>
</g>
<!-- p16 -->
<g id="node18" class="node">
<title>p16</title>
<ellipse fill="none" stroke="black" cx="76.5" cy="-407.6" rx="3.5" ry="3.5"/>
<text text-anchor="middle" x="54.5" y="-414.9" font-family="Times,serif" font-size="14.00">collect</text>
</g>
<!-- p15&#45;&gt;p16 -->
<g id="edge18" class="edge">
<title>p15&#45;&gt;p16</title>
<path fill="none" stroke="black" d="M41.54,-491.15C45.89,-480.86 62.86,-440.8 71.45,-420.51"/>
<polygon fill="black" stroke="black" points="74.71,-421.8 75.39,-411.23 68.26,-419.07 74.71,-421.8"/>
<text text-anchor="middle" x="95" y="-447.4" font-family="Times,serif" font-size="14.00">fastqcoutput</text>
</g>
<!-- p4 -->
<g id="node6" class="node">
<title>p4</title>
<ellipse fill="none" stroke="black" cx="186.5" cy="-494.6" rx="124.58" ry="18"/>
<text text-anchor="middle" x="186.5" y="-490.9" font-family="Times,serif" font-size="14.00">QC_rmHost:CLEANPEREADS</text>
</g>
<!-- p3&#45;&gt;p4 -->
<g id="edge5" class="edge">
<title>p3&#45;&gt;p4</title>
<path fill="none" stroke="black" d="M399.62,-552.06C357.25,-540.84 298.43,-525.25 253.32,-513.3"/>
<polygon fill="black" stroke="black" points="254.18,-509.91 243.62,-510.73 252.39,-516.68 254.18,-509.91"/>
</g>
<!-- p6 -->
<g id="node7" class="node">
<title>p6</title>
<ellipse fill="none" stroke="black" cx="454.5" cy="-494.6" rx="124.58" ry="18"/>
<text text-anchor="middle" x="454.5" y="-490.9" font-family="Times,serif" font-size="14.00">QC_rmHost:CLEANSEREADS</text>
</g>
<!-- p3&#45;&gt;p6 -->
<g id="edge6" class="edge">
<title>p3&#45;&gt;p6</title>
<path fill="none" stroke="black" d="M454.5,-549.41C454.5,-541.39 454.5,-531.65 454.5,-522.67"/>
<polygon fill="black" stroke="black" points="458,-522.63 454.5,-512.63 451,-522.63 458,-522.63"/>
</g>
<!-- p8 -->
<g id="node10" class="node">
<title>p8</title>
<ellipse fill="none" stroke="black" cx="600.5" cy="-494.6" rx="3.5" ry="3.5"/>
<text text-anchor="middle" x="608" y="-501.9" font-family="Times,serif" font-size="14.00">join</text>
</g>
<!-- p3&#45;&gt;p8 -->
<g id="edge9" class="edge">
<title>p3&#45;&gt;p8</title>
<path fill="none" stroke="black" d="M503.87,-551.46C528.31,-542.89 557.18,-530.27 579.5,-512.6 583.07,-509.77 586.03,-505.61 589.19,-502.11"/>
<polygon fill="black" stroke="black" points="591.36,-504.86 597.31,-496.1 587.19,-499.24 591.36,-504.86"/>
</g>
<!-- p3&#45;&gt;p8 -->
<g id="edge10" class="edge">
<title>p3&#45;&gt;p8</title>
<path fill="none" stroke="black" d="M516.2,-552.78C543.24,-544.21 574,-531.2 597.5,-512.6 599.6,-510.94 601.5,-508.81 602.9,-506.62"/>
<polygon fill="black" stroke="black" points="606.42,-506.62 603.75,-496.36 599.44,-506.04 606.42,-506.62"/>
</g>
<!-- p5 -->
<g id="node8" class="node">
<title>p5</title>
<ellipse fill="black" stroke="black" cx="186.5" cy="-407.6" rx="1.8" ry="1.8"/>
</g>
<!-- p4&#45;&gt;p5 -->
<g id="edge7" class="edge">
<title>p4&#45;&gt;p5</title>
<path fill="none" stroke="black" d="M186.5,-476.4C186.5,-459.52 186.5,-434.26 186.5,-419.82"/>
<polygon fill="black" stroke="black" points="190,-419.68 186.5,-409.68 183,-419.68 190,-419.68"/>
</g>
<!-- p7 -->
<g id="node9" class="node">
<title>p7</title>
<ellipse fill="black" stroke="black" cx="454.5" cy="-407.6" rx="1.8" ry="1.8"/>
</g>
<!-- p6&#45;&gt;p7 -->
<g id="edge8" class="edge">
<title>p6&#45;&gt;p7</title>
<path fill="none" stroke="black" d="M454.5,-476.4C454.5,-459.52 454.5,-434.26 454.5,-419.82"/>
<polygon fill="black" stroke="black" points="458,-419.68 454.5,-409.68 451,-419.68 458,-419.68"/>
</g>
<!-- p13 -->
<g id="node11" class="node">
<title>p13</title>
<ellipse fill="none" stroke="black" cx="620.5" cy="-407.6" rx="114.28" ry="18"/>
<text text-anchor="middle" x="620.5" y="-403.9" font-family="Times,serif" font-size="14.00">QC_rmHost:FILTERREADS</text>
</g>
<!-- p8&#45;&gt;p13 -->
<g id="edge11" class="edge">
<title>p8&#45;&gt;p13</title>
<path fill="none" stroke="black" d="M601.08,-491.15C602.98,-483.04 609.24,-456.46 614.14,-435.62"/>
<polygon fill="black" stroke="black" points="617.6,-436.2 616.48,-425.67 610.79,-434.6 617.6,-436.2"/>
</g>
<!-- p17 -->
<g id="node16" class="node">
<title>p17</title>
<ellipse fill="none" stroke="black" cx="386.5" cy="-320.6" rx="79.09" ry="18"/>
<text text-anchor="middle" x="386.5" y="-316.9" font-family="Times,serif" font-size="14.00">kraken:KRAKEN2</text>
</g>
<!-- p13&#45;&gt;p17 -->
<g id="edge16" class="edge">
<title>p13&#45;&gt;p17</title>
<path fill="none" stroke="black" d="M564.94,-391.8C544.78,-386.03 521.95,-379.02 501.5,-371.6 476.9,-362.67 450.04,-351.1 428.48,-341.34"/>
<polygon fill="black" stroke="black" points="429.82,-338.11 419.27,-337.14 426.92,-344.48 429.82,-338.11"/>
<text text-anchor="middle" x="513" y="-360.4" font-family="Times,serif" font-size="14.00">data</text>
</g>
<!-- p14 -->
<g id="node17" class="node">
<title>p14</title>
<ellipse fill="black" stroke="black" cx="496.5" cy="-320.6" rx="1.8" ry="1.8"/>
</g>
<!-- p13&#45;&gt;p14 -->
<g id="edge17" class="edge">
<title>p13&#45;&gt;p14</title>
<path fill="none" stroke="black" d="M582.46,-390.57C558.35,-378.93 527.82,-361.26 506.5,-338.6 504.59,-336.57 502.89,-334.12 501.45,-331.72"/>
<polygon fill="black" stroke="black" points="504.51,-330 496.91,-322.62 498.25,-333.13 504.51,-330"/>
<text text-anchor="middle" x="577" y="-360.4" font-family="Times,serif" font-size="14.00">bowtie_log</text>
</g>
<!-- p21 -->
<g id="node23" class="node">
<title>p21</title>
<ellipse fill="none" stroke="black" cx="620.5" cy="-320.6" rx="104.78" ry="18"/>
<text text-anchor="middle" x="620.5" y="-316.9" font-family="Times,serif" font-size="14.00">metaphlan:METAPHLAN</text>
</g>
<!-- p13&#45;&gt;p21 -->
<g id="edge23" class="edge">
<title>p13&#45;&gt;p21</title>
<path fill="none" stroke="black" d="M620.5,-389.4C620.5,-377.76 620.5,-362.15 620.5,-348.84"/>
<polygon fill="black" stroke="black" points="624,-348.78 620.5,-338.78 617,-348.78 624,-348.78"/>
<text text-anchor="middle" x="632" y="-360.4" font-family="Times,serif" font-size="14.00">data</text>
</g>
<!-- p27 -->
<g id="node29" class="node">
<title>p27</title>
<ellipse fill="none" stroke="black" cx="825.5" cy="-320.6" rx="81.79" ry="18"/>
<text text-anchor="middle" x="825.5" y="-316.9" font-family="Times,serif" font-size="14.00">humann:HUMANN</text>
</g>
<!-- p13&#45;&gt;p27 -->
<g id="edge29" class="edge">
<title>p13&#45;&gt;p27</title>
<path fill="none" stroke="black" d="M659.06,-390.61C693.24,-376.44 743.2,-355.72 779.47,-340.69"/>
<polygon fill="black" stroke="black" points="780.94,-343.86 788.84,-336.8 778.26,-337.4 780.94,-343.86"/>
<text text-anchor="middle" x="746" y="-360.4" font-family="Times,serif" font-size="14.00">data</text>
</g>
<!-- p9 -->
<g id="node12" class="node">
<title>p9</title>
<ellipse fill="black" stroke="black" cx="625.5" cy="-567.6" rx="3.6" ry="3.6"/>
<text text-anchor="middle" x="671.9" y="-575" font-family="Times,serif" font-size="14.00">Channel.fromPath</text>
</g>
<!-- p10 -->
<g id="node13" class="node">
<title>p10</title>
<ellipse fill="none" stroke="black" cx="625.5" cy="-494.6" rx="3.5" ry="3.5"/>
<text text-anchor="middle" x="603.5" y="-479.9" font-family="Times,serif" font-size="14.00">collect</text>
</g>
<!-- p9&#45;&gt;p10 -->
<g id="edge12" class="edge">
<title>p9&#45;&gt;p10</title>
<path fill="none" stroke="black" d="M625.5,-563.9C625.5,-554.9 625.5,-525.46 625.5,-508.31"/>
<polygon fill="black" stroke="black" points="629,-508.3 625.5,-498.3 622,-508.3 629,-508.3"/>
</g>
<!-- p10&#45;&gt;p13 -->
<g id="edge13" class="edge">
<title>p10&#45;&gt;p13</title>
<path fill="none" stroke="black" d="M625.33,-490.77C624.83,-482.28 623.31,-456.35 622.1,-435.87"/>
<polygon fill="black" stroke="black" points="625.59,-435.55 621.51,-425.77 618.6,-435.96 625.59,-435.55"/>
</g>
<!-- p11 -->
<g id="node14" class="node">
<title>p11</title>
<ellipse fill="black" stroke="black" cx="650.5" cy="-567.6" rx="3.6" ry="3.6"/>
<text text-anchor="middle" x="696.9" y="-552.8" font-family="Times,serif" font-size="14.00">Channel.fromPath</text>
</g>
<!-- p12 -->
<g id="node15" class="node">
<title>p12</title>
<ellipse fill="none" stroke="black" cx="650.5" cy="-494.6" rx="3.5" ry="3.5"/>
<text text-anchor="middle" x="634.5" y="-501.9" font-family="Times,serif" font-size="14.00">map</text>
</g>
<!-- p11&#45;&gt;p12 -->
<g id="edge14" class="edge">
<title>p11&#45;&gt;p12</title>
<path fill="none" stroke="black" d="M650.5,-563.9C650.5,-554.9 650.5,-525.46 650.5,-508.31"/>
<polygon fill="black" stroke="black" points="654,-508.3 650.5,-498.3 647,-508.3 654,-508.3"/>
</g>
<!-- p12&#45;&gt;p13 -->
<g id="edge15" class="edge">
<title>p12&#45;&gt;p13</title>
<path fill="none" stroke="black" d="M649.89,-490.84C648.16,-483.21 642.95,-461.21 636.5,-443.6 635.49,-440.84 634.35,-437.99 633.16,-435.16"/>
<polygon fill="black" stroke="black" points="636.27,-433.55 629.02,-425.82 629.87,-436.38 636.27,-433.55"/>
</g>
<!-- p18 -->
<g id="node20" class="node">
<title>p18</title>
<ellipse fill="none" stroke="black" cx="332.5" cy="-248.1" rx="3.5" ry="3.5"/>
<text text-anchor="middle" x="310.5" y="-255.4" font-family="Times,serif" font-size="14.00">collect</text>
</g>
<!-- p17&#45;&gt;p18 -->
<g id="edge20" class="edge">
<title>p17&#45;&gt;p18</title>
<path fill="none" stroke="black" d="M373.43,-302.53C363.1,-289.06 349.04,-270.69 340.37,-259.38"/>
<polygon fill="black" stroke="black" points="343.06,-257.13 334.2,-251.32 337.5,-261.38 343.06,-257.13"/>
</g>
<!-- p31 -->
<g id="node19" class="node">
<title>p31</title>
<ellipse fill="none" stroke="black" cx="89.5" cy="-277.1" rx="3.5" ry="3.5"/>
<text text-anchor="middle" x="67.5" y="-284.4" font-family="Times,serif" font-size="14.00">collect</text>
</g>
<!-- p16&#45;&gt;p31 -->
<g id="edge19" class="edge">
<title>p16&#45;&gt;p31</title>
<path fill="none" stroke="black" d="M76.77,-403.92C78.24,-389.41 85.26,-320 88.2,-290.94"/>
<polygon fill="black" stroke="black" points="91.71,-291.07 89.23,-280.77 84.74,-290.37 91.71,-291.07"/>
<text text-anchor="middle" x="116.5" y="-360.4" font-family="Times,serif" font-size="14.00">Fastqcoutput</text>
</g>
<!-- p33 -->
<g id="node33" class="node">
<title>p33</title>
<ellipse fill="none" stroke="black" cx="117.5" cy="-58.6" rx="55.49" ry="18"/>
<text text-anchor="middle" x="117.5" y="-54.9" font-family="Times,serif" font-size="14.00">MULTIQC2</text>
</g>
<!-- p31&#45;&gt;p33 -->
<g id="edge33" class="edge">
<title>p31&#45;&gt;p33</title>
<path fill="none" stroke="black" d="M90.98,-273.51C94.94,-266.32 105.5,-245.39 105.5,-226.6 105.5,-226.6 105.5,-226.6 105.5,-116.1 105.5,-106.34 107.24,-95.83 109.39,-86.55"/>
<polygon fill="black" stroke="black" points="112.82,-87.27 111.92,-76.71 106.04,-85.52 112.82,-87.27"/>
</g>
<!-- p19 -->
<g id="node21" class="node">
<title>p19</title>
<ellipse fill="none" stroke="black" cx="256.5" cy="-189.6" rx="104.78" ry="18"/>
<text text-anchor="middle" x="256.5" y="-185.9" font-family="Times,serif" font-size="14.00">kraken:KRAKEN2YAML</text>
</g>
<!-- p18&#45;&gt;p19 -->
<g id="edge21" class="edge">
<title>p18&#45;&gt;p19</title>
<path fill="none" stroke="black" d="M329.97,-245.22C323.24,-240.22 304.25,-226.1 287.26,-213.47"/>
<polygon fill="black" stroke="black" points="289.26,-210.59 279.15,-207.44 285.09,-216.21 289.26,-210.59"/>
</g>
<!-- p32 -->
<g id="node22" class="node">
<title>p32</title>
<ellipse fill="none" stroke="black" cx="167.5" cy="-117.1" rx="3.5" ry="3.5"/>
<text text-anchor="middle" x="145.5" y="-124.4" font-family="Times,serif" font-size="14.00">collect</text>
</g>
<!-- p19&#45;&gt;p32 -->
<g id="edge22" class="edge">
<title>p19&#45;&gt;p32</title>
<path fill="none" stroke="black" d="M235.41,-171.89C217.21,-157.48 191.71,-137.27 177.7,-126.18"/>
<polygon fill="black" stroke="black" points="179.82,-123.4 169.81,-119.93 175.47,-128.88 179.82,-123.4"/>
<text text-anchor="middle" x="246" y="-142.4" font-family="Times,serif" font-size="14.00">report_yaml</text>
</g>
<!-- p32&#45;&gt;p33 -->
<g id="edge34" class="edge">
<title>p32&#45;&gt;p33</title>
<path fill="none" stroke="black" d="M165.35,-113.67C160.72,-108.44 149.37,-95.61 138.88,-83.76"/>
<polygon fill="black" stroke="black" points="141.45,-81.38 132.2,-76.21 136.2,-86.02 141.45,-81.38"/>
</g>
<!-- p24 -->
<g id="node24" class="node">
<title>p24</title>
<ellipse fill="none" stroke="black" cx="523.5" cy="-248.1" rx="3.5" ry="3.5"/>
<text text-anchor="middle" x="501.5" y="-255.4" font-family="Times,serif" font-size="14.00">collect</text>
</g>
<!-- p21&#45;&gt;p24 -->
<g id="edge24" class="edge">
<title>p21&#45;&gt;p24</title>
<path fill="none" stroke="black" d="M564.58,-305.21C553.44,-300.2 542.67,-293.51 534.5,-284.6 528.8,-278.39 526.05,-269.27 524.73,-261.82"/>
<polygon fill="black" stroke="black" points="528.18,-261.24 523.58,-251.7 521.23,-262.03 528.18,-261.24"/>
<text text-anchor="middle" x="575.5" y="-273.4" font-family="Times,serif" font-size="14.00">metaphlan_out</text>
</g>
<!-- p23 -->
<g id="node25" class="node">
<title>p23</title>
<ellipse fill="black" stroke="black" cx="620.5" cy="-248.1" rx="1.8" ry="1.8"/>
</g>
<!-- p21&#45;&gt;p23 -->
<g id="edge25" class="edge">
<title>p21&#45;&gt;p23</title>
<path fill="none" stroke="black" d="M620.5,-302.53C620.5,-289.39 620.5,-271.59 620.5,-260.23"/>
<polygon fill="black" stroke="black" points="624,-259.92 620.5,-249.92 617,-259.92 624,-259.92"/>
</g>
<!-- p22 -->
<g id="node26" class="node">
<title>p22</title>
<ellipse fill="black" stroke="black" cx="645.5" cy="-248.1" rx="1.8" ry="1.8"/>
</g>
<!-- p21&#45;&gt;p22 -->
<g id="edge26" class="edge">
<title>p21&#45;&gt;p22</title>
<path fill="none" stroke="black" d="M626.55,-302.53C631.32,-289.09 637.81,-270.79 641.82,-259.47"/>
<polygon fill="black" stroke="black" points="645.16,-260.52 645.21,-249.92 638.57,-258.18 645.16,-260.52"/>
</g>
<!-- p25 -->
<g id="node27" class="node">
<title>p25</title>
<ellipse fill="none" stroke="black" cx="523.5" cy="-189.6" rx="135.68" ry="18"/>
<text text-anchor="middle" x="523.5" y="-185.9" font-family="Times,serif" font-size="14.00">metaphlan:ABUNDANCEMERGE</text>
</g>
<!-- p24&#45;&gt;p25 -->
<g id="edge27" class="edge">
<title>p24&#45;&gt;p25</title>
<path fill="none" stroke="black" d="M523.5,-244.37C523.5,-239.43 523.5,-228.5 523.5,-217.77"/>
<polygon fill="black" stroke="black" points="527,-217.75 523.5,-207.75 520,-217.75 527,-217.75"/>
</g>
<!-- p26 -->
<g id="node28" class="node">
<title>p26</title>
<ellipse fill="black" stroke="black" cx="523.5" cy="-117.1" rx="1.8" ry="1.8"/>
</g>
<!-- p25&#45;&gt;p26 -->
<g id="edge28" class="edge">
<title>p25&#45;&gt;p26</title>
<path fill="none" stroke="black" d="M523.5,-171.53C523.5,-158.39 523.5,-140.59 523.5,-129.23"/>
<polygon fill="black" stroke="black" points="527,-128.92 523.5,-118.92 520,-128.92 527,-128.92"/>
<text text-anchor="middle" x="555.5" y="-142.4" font-family="Times,serif" font-size="14.00">abundances</text>
</g>
<!-- p28 -->
<g id="node30" class="node">
<title>p28</title>
<ellipse fill="none" stroke="black" cx="825.5" cy="-248.1" rx="3.5" ry="3.5"/>
<text text-anchor="middle" x="803.5" y="-255.4" font-family="Times,serif" font-size="14.00">collect</text>
</g>
<!-- p27&#45;&gt;p28 -->
<g id="edge30" class="edge">
<title>p27&#45;&gt;p28</title>
<path fill="none" stroke="black" d="M825.5,-302.53C825.5,-289.98 825.5,-273.19 825.5,-261.8"/>
<polygon fill="black" stroke="black" points="829,-261.76 825.5,-251.76 822,-261.76 829,-261.76"/>
</g>
<!-- p29 -->
<g id="node31" class="node">
<title>p29</title>
<ellipse fill="none" stroke="black" cx="825.5" cy="-189.6" rx="133.78" ry="18"/>
<text text-anchor="middle" x="825.5" y="-185.9" font-family="Times,serif" font-size="14.00">humann:HUMANNJOINTABLES</text>
</g>
<!-- p28&#45;&gt;p29 -->
<g id="edge31" class="edge">
<title>p28&#45;&gt;p29</title>
<path fill="none" stroke="black" d="M825.5,-244.37C825.5,-239.43 825.5,-228.5 825.5,-217.77"/>
<polygon fill="black" stroke="black" points="829,-217.75 825.5,-207.75 822,-217.75 829,-217.75"/>
</g>
<!-- p30 -->
<g id="node32" class="node">
<title>p30</title>
<ellipse fill="black" stroke="black" cx="825.5" cy="-117.1" rx="1.8" ry="1.8"/>
</g>
<!-- p29&#45;&gt;p30 -->
<g id="edge32" class="edge">
<title>p29&#45;&gt;p30</title>
<path fill="none" stroke="black" d="M825.5,-171.53C825.5,-158.39 825.5,-140.59 825.5,-129.23"/>
<polygon fill="black" stroke="black" points="829,-128.92 825.5,-118.92 822,-128.92 829,-128.92"/>
<text text-anchor="middle" x="859" y="-142.4" font-family="Times,serif" font-size="14.00">mergedtable</text>
</g>
<!-- p34 -->
<g id="node34" class="node">
<title>p34</title>
<ellipse fill="black" stroke="black" cx="117.5" cy="-1.8" rx="1.8" ry="1.8"/>
</g>
<!-- p33&#45;&gt;p34 -->
<g id="edge35" class="edge">
<title>p33&#45;&gt;p34</title>
<path fill="none" stroke="black" d="M117.5,-40.56C117.5,-31.87 117.5,-21.56 117.5,-13.9"/>
<polygon fill="black" stroke="black" points="121,-13.76 117.5,-3.76 114,-13.76 121,-13.76"/>
</g>
</g>
</svg>
